<svg width="162" height="76" viewBox="0 0 162 76" fill="none" xmlns="http://www.w3.org/2000/svg">
<path fill-rule="evenodd" clip-rule="evenodd" d="M125.024 32.5231C124.855 32.6908 124.718 40.2233 124.718 49.2608V65.6933L142.711 65.5736L160.705 65.4535L160.832 49.8669C160.903 41.2942 160.848 33.8158 160.709 33.2488L160.458 32.2173H142.894C133.233 32.2173 125.191 32.3548 125.024 32.5231ZM155.795 51.3105C155.365 44.6087 151.225 39.312 144.693 37.106C142.191 36.2611 138.225 36.0874 137.782 36.8034C137.626 37.0565 138.511 39.7896 139.751 42.8776C141.616 47.5243 141.878 48.5108 141.269 48.602C140.865 48.663 138.161 48.2289 135.262 47.6375C132.362 47.0461 129.815 46.6601 129.602 46.7789C129.389 46.8981 129.357 47.946 129.531 49.1082C130.395 54.8715 135.049 59.9106 141.19 61.7342C146.441 63.2938 150.579 62.3527 153.702 58.8897C155.782 56.582 156.068 55.5496 155.795 51.3105Z" fill="#84CAA0"/>
<path fill-rule="evenodd" clip-rule="evenodd" d="M83.7698 32.5175C83.5988 32.6885 83.459 40.2205 83.459 49.2557V65.6827H101.572H119.686L119.566 49.0646L119.446 32.4465L101.763 32.3264C92.038 32.2608 83.9408 32.3465 83.7698 32.5175ZM94.0506 40.5946C93.1947 40.2361 92.1999 39.6484 91.8405 39.289C90.9841 38.4326 90.2937 38.4519 90.6279 39.3229C90.7732 39.7011 91.0708 40.0106 91.2894 40.0106C91.5081 40.0106 92.0303 40.6812 92.4493 41.5005C92.8687 42.3197 93.8273 43.7738 94.5801 44.7315C95.9178 46.4336 95.9631 46.4515 96.6063 45.5337C96.968 45.0175 97.5617 44.5949 97.9257 44.5949C98.2897 44.5949 98.5872 44.4069 98.5872 44.1772C98.5872 43.5331 95.788 41.3226 94.0506 40.5946ZM106.839 43.678C107.947 44.7865 107.967 45.1487 107.02 46.9801C106.616 47.7622 106.151 49.33 105.989 50.4632C105.704 52.4478 105.609 52.5532 103.401 53.3138C102.14 53.7479 100.436 54.3571 99.6127 54.668C97.8331 55.3396 96.7535 55.0315 96.7535 53.8515C96.7535 52.9236 98.4703 51.9339 100.099 51.9229C102.404 51.9068 102.373 51.1843 99.9959 49.4762C98.2658 48.233 97.6703 47.5119 97.6703 46.6587C97.6703 44.8241 99.593 45.1523 102.036 47.4037L104.088 49.2961V46.5785C104.088 42.9298 105.063 41.902 106.839 43.678ZM108.016 40.1389C107.835 38.6816 107.7 37.0248 107.716 36.4577C107.751 35.2443 107.607 35.1879 106.839 36.1139C106.525 36.4921 106.401 36.8015 106.563 36.8015C106.725 36.8015 106.467 37.5754 105.99 38.5207C104.653 41.1722 104.366 42.3435 105.125 42.052C105.476 41.9172 106.345 42.0277 107.055 42.2977L108.345 42.7882L108.016 40.1389ZM109.192 53.6489C112.402 56.763 110.646 58.4482 107.321 55.4441C105.719 53.9964 105.668 53.8639 106.349 52.9397C106.745 52.4029 107.147 51.9563 107.244 51.9467C107.34 51.9375 108.217 52.7036 109.192 53.6489ZM112.105 58.8869C112.741 59.1766 113.387 59.2876 113.54 59.134C113.694 58.9804 113.421 58.3478 112.934 57.728C112.078 56.6401 112.029 56.6319 111.498 57.4809C111.025 58.2391 111.108 58.433 112.105 58.8869ZM95.5359 54.3163C95.6812 54.8729 95.728 55.4001 95.6399 55.4881C95.5519 55.5766 94.3738 55.5853 93.0223 55.5083L90.5647 55.368L92.3984 54.3567C94.7258 53.0731 95.209 53.0671 95.5359 54.3163ZM114.605 60.1815C114.872 60.1815 115.091 59.9752 115.091 59.7231C115.091 59.4709 115 59.2646 114.889 59.2646C114.777 59.2646 114.559 59.4709 114.403 59.7231C114.247 59.9752 114.338 60.1815 114.605 60.1815Z" fill="#72CA93"/>
<path fill-rule="evenodd" clip-rule="evenodd" d="M42.4295 65.9119L42.3094 49.0646L42.1888 32.2173H60.0245C75.8651 32.2173 77.891 32.2984 78.1381 32.9425C78.2912 33.3414 78.4163 40.7427 78.4163 49.3896C78.4163 62.1267 78.2971 65.211 77.7896 65.6323C77.3408 66.0045 72.2335 66.1182 59.7962 66.032L42.4295 65.9119ZM60.5339 36.1071C67.011 37.8308 72.514 42.2285 74.075 46.9288C75.3334 50.7177 74.135 54.7354 71.1387 56.7713C68.8177 58.3483 67.0096 58.2346 65.2401 56.3995C63.2789 54.3664 62.7962 52.8434 63.1226 49.7211C63.3949 47.1131 63.3692 47.037 61.4787 44.8521C60.4225 43.6317 59.2594 42.3348 58.895 41.9699C57.2345 40.3095 55.9532 38.2227 55.9532 37.1784C55.9532 35.1879 56.5528 35.0476 60.5339 36.1071ZM55.1583 43.678C55.0327 41.5 54.6485 39.3266 54.2868 38.7499C53.9311 38.1828 53.4566 37.7185 53.2329 37.7185C52.4086 37.7185 50.5506 40.4663 49.355 43.4525C45.9095 52.0595 46.5228 57.4814 51.3011 60.6501C53.5666 62.1523 56.7041 62.7845 58.851 62.1716C60.6278 61.6641 61.5548 59.4824 61.1578 56.7433C60.8107 54.3494 59.8609 52.7719 58.1867 51.8111C56.3365 50.7493 55.4242 48.3004 55.1583 43.678Z" fill="#28A573"/>
<path fill-rule="evenodd" clip-rule="evenodd" d="M1.25235 32.5176C0.810877 32.9595 0.878725 64.874 1.32294 65.5736C1.61038 66.0265 5.56389 66.126 19.5382 66.032L37.3868 65.9119V49.1792V32.4465L19.475 32.3268C9.62374 32.2608 1.42334 32.3466 1.25235 32.5176ZM28.6376 43.441C29.008 41.9658 27.5163 38.4469 26.2286 37.7579C23.957 36.5421 22.4878 37.4718 22.4878 40.1252C22.4878 45.0377 27.5516 47.7682 28.6376 43.441ZM17.5161 37.2793C18.9945 38.8338 19.2787 39.4472 19.2787 41.0842C19.2787 44.7168 16.7707 45.3018 14.06 42.3014C12.6787 40.7725 12.4023 40.1261 12.4023 38.4276C12.4023 36.9694 12.6306 36.2556 13.2045 35.9214C14.6665 35.0701 15.7342 35.4061 17.5161 37.2793ZM13.1349 46.7362C12.8438 45.1849 11.6335 43.7647 9.79657 42.8185C9.24554 42.5347 8.20399 42.3027 7.4815 42.3027C2.79405 42.3027 5.30762 48.9573 10.2037 49.5088C12.7049 49.7908 13.5566 48.9848 13.1349 46.7362ZM11.1939 53.0204C12.9089 53.7369 14.6944 55.771 14.6944 57.0083C14.6944 58.1282 12.9671 59.2651 11.2686 59.2628C9.81124 59.261 7.08404 57.8348 6.12134 56.5705C5.23977 55.412 5.4259 53.8855 6.54493 53.102C7.8024 52.2209 9.22124 52.1961 11.1939 53.0204ZM33.3471 53.0167C33.8371 51.7395 30.817 49.2952 27.7781 48.5099C24.1299 47.5674 23.0521 47.6164 20.6472 48.8354C17.8746 50.2409 16.7478 52.286 16.7963 55.8264C16.8816 62.0198 21.437 65.8051 23.6513 61.5229C24.9234 59.0634 27.6295 56.4774 30.3893 55.0842C31.8654 54.3388 33.1967 53.4087 33.3471 53.0167Z" fill="#0C6270"/>
<path fill-rule="evenodd" clip-rule="evenodd" d="M43.7098 1.97696C40.5622 3.55946 38.8409 5.76726 37.4175 8.6595C36.4901 10.5436 36.3076 11.5976 36.3108 15.0422C36.3145 18.6372 36.4749 19.4725 37.5582 21.5336C39.0408 24.3543 41.4402 26.7207 44.3008 28.1841C47.0894 29.6102 53.7523 29.7267 56.2484 28.3926C59.4817 26.6644 61.6854 24.4543 63.1584 21.4616C64.4305 18.8775 64.6107 18.0495 64.5969 14.8515C64.5827 11.6177 64.4076 10.871 63.0809 8.38169C61.6568 5.70993 59.9924 3.73872 57.6919 2.43539C55.6164 1.25956 52.9806 0.620754 50.2888 0.61771C47.4507 0.614501 45.7699 0.941821 43.7098 1.97696ZM2.61206 15.5007V28.7951H5.82107L9.03009 28.7951V22.6063V16.1883H14.7605H20.4909V22.6063V28.7951L23.6999 28.7951H26.9089V15.5007V1.97696L23.6999 1.93661H20.4909V7.24891V12.5209H14.7605H9.03009V7.24891V1.97696H5.82107H2.61206V15.5007ZM73.2603 4.38372C74.1813 6.7075 76.5574 13.2768 79.9342 22.8355C82.4471 28.7951 80.6134 24.4401 82.4471 28.7951L88.9185 28.7951L90.716 24.2108C91.7044 21.6895 93.1035 17.9762 93.8251 15.9591C94.5462 13.942 95.9792 9.9619 97.0093 7.11413L98.882 1.93661H95.7416H92.5326L90.5248 7.24891C87.589 15.3714 85.8337 19.8498 85.588 19.8457C85.4619 19.8434 84.1668 16.4922 82.7095 12.3989C80.3044 5.64206 79.0089 1.93661 79.0089 1.93661C79.0089 1.93661 77.0549 1.97696 75.5167 1.97696H72.3068L73.2603 4.38372ZM107.242 15.386L107.363 28.7951L118.434 28.7951H129.597C129.597 28.7951 129.593 27.9945 129.597 27.3675C129.602 26.602 129.597 25.4605 129.597 25.4605H121.46L113.552 25.3354V20.7616V16.1883H120.901C128.862 16.1883 126.618 16.1883 128.205 16.1883V12.5209H120.859H113.514L113.648 8.96802L113.781 5.41519L121.689 5.28958L129.597 5.16442V3.57046V1.97696H118.359H107.12L107.242 15.386ZM137.849 3.58146V5.18597H142.196H146.544L146.666 16.9906L146.788 28.7951L149.836 28.7951H152.977V17.1263V5.18597H157.332H161.687V3.58146V1.97696H149.768H137.849V3.58146ZM52.994 5.39181C58.9995 8.49721 60.0768 18.9966 54.8731 23.6979C52.6383 25.7168 50.6418 26.1326 48.0879 25.1107C44.3577 23.6181 42.1939 19.2974 42.606 14.1634C43.1451 7.45153 48.3983 3.0153 52.994 5.39181Z" fill="#291B66"/>
<path d="M3.95799 72.5476H1.81254V74.3822H1.30368V70.4049H1.81254V72.0992H3.95799V70.4049H4.46685V74.3822H3.95799V72.5476ZM7.12275 74.4372C6.86053 74.4372 6.63132 74.3813 6.43511 74.2694C6.2389 74.1557 6.0867 73.9898 5.97851 73.7716C5.87032 73.5534 5.81623 73.2866 5.81623 72.9712C5.81623 72.6741 5.86666 72.4137 5.96751 72.19C6.06836 71.9663 6.21598 71.793 6.41035 71.6701C6.60656 71.5454 6.84403 71.4831 7.12275 71.4831C7.38498 71.4831 7.61236 71.5408 7.8049 71.6564C7.99927 71.7701 8.14964 71.9379 8.256 72.1597C8.36235 72.3816 8.41553 72.6521 8.41553 72.9712C8.41553 73.2609 8.36602 73.5158 8.267 73.7358C8.16981 73.9559 8.02495 74.1282 7.83241 74.2529C7.6417 74.3758 7.40515 74.4372 7.12275 74.4372ZM7.12275 74.0356C7.29329 74.0356 7.43724 73.9925 7.5546 73.9064C7.67195 73.8202 7.76089 73.6964 7.8214 73.535C7.88192 73.3737 7.91217 73.182 7.91217 72.9602C7.91217 72.7566 7.88558 72.5742 7.83241 72.4128C7.77923 72.2496 7.69396 72.1203 7.5766 72.025C7.46108 71.9296 7.30979 71.8819 7.12275 71.8819C6.95038 71.8819 6.8046 71.925 6.68541 72.0112C6.56622 72.0956 6.47545 72.2184 6.4131 72.3798C6.35259 72.5411 6.32234 72.7346 6.32234 72.9602C6.32234 73.16 6.34984 73.3416 6.40485 73.5048C6.45986 73.668 6.54605 73.7972 6.66341 73.8926C6.78077 73.988 6.93388 74.0356 7.12275 74.0356ZM10.6935 74.4372C10.4955 74.4372 10.3112 74.407 10.1407 74.3464C9.97196 74.2841 9.83168 74.1878 9.71982 74.0576C9.60796 73.9256 9.53737 73.7578 9.50803 73.5543H9.97012C9.9958 73.6661 10.0416 73.7597 10.1077 73.8348C10.1755 73.9082 10.2599 73.9641 10.3607 74.0026C10.4616 74.0393 10.5716 74.0576 10.6908 74.0576C10.8815 74.0576 11.0355 74.0219 11.1529 73.9504C11.2702 73.8788 11.3289 73.7688 11.3289 73.6203C11.3289 73.5158 11.2977 73.4323 11.2354 73.37C11.1749 73.3058 11.0804 73.259 10.9521 73.2297L10.3635 73.0839C10.1342 73.0289 9.95087 72.9427 9.81334 72.8254C9.67581 72.708 9.60705 72.5439 9.60705 72.333C9.60521 72.1661 9.64464 72.0195 9.72532 71.8929C9.80601 71.7664 9.92703 71.6665 10.0884 71.5931C10.2498 71.5198 10.4506 71.4831 10.6908 71.4831C10.9988 71.4831 11.2473 71.5528 11.4362 71.6921C11.6269 71.8297 11.7259 72.0323 11.7332 72.3H11.2849C11.2666 72.1643 11.2051 72.057 11.1006 71.9782C10.9979 71.8975 10.8595 71.8572 10.6853 71.8572C10.5037 71.8572 10.3561 71.8938 10.2424 71.9672C10.1287 72.0387 10.0719 72.1506 10.0719 72.3028C10.0719 72.4036 10.1122 72.4834 10.1929 72.5421C10.2736 72.5989 10.3928 72.6466 10.5505 72.6851L11.1199 72.8281C11.2519 72.863 11.3601 72.9088 11.4444 72.9657C11.5306 73.0225 11.5985 73.0858 11.648 73.1554C11.6993 73.2251 11.7351 73.2985 11.7553 73.3755C11.7773 73.4507 11.7883 73.5231 11.7883 73.5928C11.7883 73.767 11.7442 73.9174 11.6562 74.0439C11.57 74.1686 11.4454 74.2658 11.2822 74.3354C11.1208 74.4033 10.9246 74.4372 10.6935 74.4372ZM13.118 75.2679V71.5381H13.6241L13.6296 72.0332C13.6626 71.9745 13.7048 71.9131 13.7561 71.8489C13.8093 71.7847 13.8735 71.7251 13.9487 71.6701C14.0257 71.6151 14.1146 71.5702 14.2155 71.5353C14.3182 71.5005 14.4346 71.4831 14.5648 71.4831C14.7922 71.4831 14.9921 71.5353 15.1644 71.6399C15.3386 71.7426 15.4743 71.9003 15.5715 72.113C15.6687 72.3257 15.7173 72.5952 15.7173 72.9216C15.7173 73.248 15.6696 73.524 15.5743 73.7496C15.4807 73.9733 15.345 74.1438 15.1672 74.2612C14.9893 74.3785 14.7748 74.4372 14.5235 74.4372C14.397 74.4372 14.2842 74.4189 14.1852 74.3822C14.088 74.3474 14.0028 74.3015 13.9294 74.2447C13.8579 74.186 13.7974 74.1236 13.7479 74.0576C13.7002 73.9916 13.6608 73.9284 13.6296 73.8678V75.2679H13.118ZM14.4273 74.0411C14.662 74.0411 14.8536 73.9522 15.0021 73.7743C15.1507 73.5946 15.2249 73.3159 15.2249 72.9381C15.2249 72.6136 15.1571 72.3559 15.0214 72.1652C14.8857 71.9745 14.6877 71.8792 14.4273 71.8792C14.1632 71.8792 13.9633 71.9773 13.8276 72.1735C13.6919 72.3679 13.6241 72.6227 13.6241 72.9381C13.6241 73.1417 13.6544 73.3269 13.7149 73.4938C13.7754 73.6606 13.8652 73.7936 13.9844 73.8926C14.1036 73.9916 14.2512 74.0411 14.4273 74.0411ZM17.5533 71.5381V74.3822H17.061V71.5381H17.5533ZM17.5643 70.4076V70.9357H17.0445V70.4076H17.5643ZM20.5498 71.9094H19.9089V73.6781C19.9089 73.7789 19.919 73.8532 19.9391 73.9009C19.9611 73.9467 19.9969 73.976 20.0464 73.9889C20.0978 74.0017 20.1674 74.0081 20.2555 74.0081H20.5663V74.3492C20.5314 74.362 20.4783 74.373 20.4067 74.3822C20.3371 74.3914 20.25 74.396 20.1454 74.396C19.9492 74.396 19.797 74.3694 19.6888 74.3162C19.5806 74.263 19.5045 74.1842 19.4605 74.0796C19.4184 73.9751 19.3973 73.8468 19.3973 73.6946V71.9094H18.9352V71.5381H19.411L19.5348 70.7102H19.9089V71.5353H20.5498V71.9094ZM22.67 74.4372C22.4866 74.4372 22.3243 74.4051 22.1831 74.3409C22.0419 74.2749 21.931 74.1805 21.8503 74.0576C21.7715 73.9348 21.732 73.7862 21.732 73.612C21.732 73.2966 21.8421 73.0619 22.0621 72.9079C22.2822 72.7539 22.6352 72.6713 23.1211 72.6603L23.6299 72.6466V72.4238C23.6299 72.2496 23.5777 72.1121 23.4732 72.0112C23.3686 71.9085 23.2064 71.8572 22.9863 71.8572C22.8231 71.859 22.6792 71.8975 22.5545 71.9727C22.4316 72.0479 22.3518 72.1707 22.3152 72.3413H21.8668C21.8778 72.1561 21.9301 72.0002 22.0236 71.8737C22.1171 71.7453 22.2473 71.6481 22.4142 71.5821C22.5829 71.5161 22.7819 71.4831 23.0111 71.4831C23.2586 71.4831 23.464 71.5179 23.6272 71.5876C23.7922 71.6573 23.9151 71.76 23.9958 71.8957C24.0783 72.0314 24.1196 72.1982 24.1196 72.3963V74.3822H23.685L23.6492 73.8486C23.5392 74.0705 23.3989 74.2245 23.2284 74.3107C23.0597 74.395 22.8735 74.4372 22.67 74.4372ZM22.824 74.0714C22.9194 74.0714 23.0138 74.054 23.1073 74.0191C23.2027 73.9843 23.2898 73.9375 23.3686 73.8788C23.4475 73.8183 23.5098 73.7514 23.5557 73.6781C23.6034 73.6029 23.6281 73.5259 23.6299 73.447V72.9602L23.2064 72.9684C22.99 72.9721 22.8084 72.9941 22.6617 73.0344C22.5169 73.0748 22.4078 73.138 22.3344 73.2242C22.2629 73.3104 22.2272 73.4232 22.2272 73.5625C22.2272 73.7221 22.2822 73.8468 22.3922 73.9366C22.504 74.0265 22.648 74.0714 22.824 74.0714ZM26.3253 74.418C26.1712 74.418 26.0465 74.3969 25.9512 74.3547C25.8577 74.3125 25.7852 74.2557 25.7339 74.1842C25.6844 74.1126 25.6505 74.031 25.6321 73.9394C25.6156 73.8458 25.6074 73.7496 25.6074 73.6505V70.2948H26.108V73.601C26.108 73.7441 26.1355 73.8513 26.1905 73.9229C26.2473 73.9944 26.3262 74.0338 26.427 74.0411L26.5811 74.0439V74.374C26.5389 74.3868 26.4949 74.3969 26.449 74.4042C26.4032 74.4134 26.3619 74.418 26.3253 74.418ZM32.739 70.4049L31.3279 74.3822H30.7145L29.3283 70.4049H29.8316L31.0226 73.8018L32.2384 70.4049H32.739ZM34.0266 73.0784C34.0266 73.2581 34.056 73.4213 34.1147 73.568C34.1752 73.7129 34.2659 73.8284 34.387 73.9146C34.5098 74.0008 34.6629 74.0439 34.8463 74.0439C35.0278 74.0439 35.1837 74.0017 35.3139 73.9174C35.4459 73.833 35.5303 73.7111 35.567 73.5515H36.0483C36.0135 73.7441 35.9365 73.9064 35.8173 74.0384C35.6981 74.1704 35.5541 74.2703 35.3854 74.3382C35.2167 74.4042 35.0407 74.4372 34.8573 74.4372C34.5914 74.4372 34.3576 74.3795 34.1559 74.2639C33.9542 74.1484 33.7965 73.9825 33.6828 73.7661C33.5691 73.5497 33.5123 73.2902 33.5123 72.9877C33.5123 72.6888 33.5636 72.4265 33.6663 72.201C33.769 71.9754 33.9175 71.7994 34.1119 71.6729C34.3081 71.5464 34.5437 71.4831 34.8188 71.4831C35.0865 71.4831 35.313 71.5408 35.4982 71.6564C35.6834 71.7719 35.8237 71.9351 35.919 72.146C36.0162 72.355 36.0648 72.6035 36.0648 72.8914V73.0784H34.0266ZM34.0294 72.7346H35.5752C35.5752 72.5714 35.5477 72.4247 35.4927 72.2945C35.4377 72.1625 35.3533 72.0589 35.2396 71.9837C35.1278 71.9067 34.9866 71.8682 34.8161 71.8682C34.6382 71.8682 34.4906 71.9113 34.3732 71.9974C34.2577 72.0818 34.1706 72.1909 34.1119 72.3248C34.0551 72.4568 34.0276 72.5934 34.0294 72.7346ZM38.7359 71.9094H38.095V73.6781C38.095 73.7789 38.1051 73.8532 38.1252 73.9009C38.1472 73.9467 38.183 73.976 38.2325 73.9889C38.2838 74.0017 38.3535 74.0081 38.4415 74.0081H38.7524V74.3492C38.7175 74.362 38.6643 74.373 38.5928 74.3822C38.5231 74.3914 38.436 74.396 38.3315 74.396C38.1353 74.396 37.9831 74.3694 37.8749 74.3162C37.7667 74.263 37.6906 74.1842 37.6466 74.0796C37.6044 73.9751 37.5834 73.8468 37.5834 73.6946V71.9094H37.1213V71.5381H37.5971L37.7209 70.7102H38.095V71.5353H38.7359V71.9094ZM40.3734 73.0784C40.3734 73.2581 40.4027 73.4213 40.4614 73.568C40.5219 73.7129 40.6127 73.8284 40.7337 73.9146C40.8566 74.0008 41.0097 74.0439 41.1931 74.0439C41.3746 74.0439 41.5305 74.0017 41.6607 73.9174C41.7927 73.833 41.877 73.7111 41.9137 73.5515H42.3951C42.3602 73.7441 42.2832 73.9064 42.164 74.0384C42.0448 74.1704 41.9009 74.2703 41.7322 74.3382C41.5635 74.4042 41.3874 74.4372 41.2041 74.4372C40.9382 74.4372 40.7044 74.3795 40.5027 74.2639C40.301 74.1484 40.1433 73.9825 40.0296 73.7661C39.9159 73.5497 39.859 73.2902 39.859 72.9877C39.859 72.6888 39.9104 72.4265 40.0131 72.201C40.1158 71.9754 40.2643 71.7994 40.4587 71.6729C40.6549 71.5464 40.8905 71.4831 41.1656 71.4831C41.4333 71.4831 41.6597 71.5408 41.845 71.6564C42.0302 71.7719 42.1704 71.9351 42.2658 72.146C42.363 72.355 42.4116 72.6035 42.4116 72.8914V73.0784H40.3734ZM40.3761 72.7346H41.922C41.922 72.5714 41.8945 72.4247 41.8395 72.2945C41.7844 72.1625 41.7001 72.0589 41.5864 71.9837C41.4745 71.9067 41.3333 71.8682 41.1628 71.8682C40.9849 71.8682 40.8373 71.9113 40.72 71.9974C40.6044 72.0818 40.5173 72.1909 40.4587 72.3248C40.4018 72.4568 40.3743 72.5934 40.3761 72.7346ZM43.729 74.3822V71.5381H44.2131V72.0855C44.2608 71.9498 44.3277 71.8379 44.4139 71.7499C44.5001 71.66 44.5982 71.5931 44.7082 71.5491C44.82 71.5051 44.9356 71.4831 45.0548 71.4831C45.0969 71.4831 45.1382 71.4858 45.1785 71.4913C45.2189 71.4968 45.25 71.506 45.2721 71.5188V72.0112C45.2445 71.9984 45.2088 71.9901 45.1648 71.9864C45.1226 71.9809 45.0868 71.9782 45.0575 71.9782C44.9438 71.9709 44.8375 71.9782 44.7384 72.0002C44.6394 72.0204 44.5523 72.0561 44.4771 72.1075C44.402 72.1588 44.3424 72.2267 44.2983 72.311C44.2562 72.3935 44.2351 72.4944 44.2351 72.6136V74.3822H43.729ZM47.0307 71.5381V74.3822H46.5384V71.5381H47.0307ZM47.0417 70.4076V70.9357H46.5219V70.4076H47.0417ZM48.5769 74.3822V71.5381H49.0692V71.9507C49.1151 71.8718 49.1783 71.7976 49.259 71.7279C49.3415 71.6582 49.4406 71.6023 49.5561 71.5601C49.6734 71.5179 49.8082 71.4968 49.9604 71.4968C50.1401 71.4968 50.3052 71.5326 50.4555 71.6041C50.6077 71.6756 50.7287 71.7875 50.8186 71.9397C50.9103 72.09 50.9561 72.2844 50.9561 72.5228V74.3822H50.4473V72.5723C50.4473 72.3504 50.3886 72.1863 50.2712 72.08C50.1557 71.9718 50.0053 71.9177 49.8201 71.9177C49.6918 71.9177 49.5717 71.9388 49.4598 71.9809C49.348 72.0213 49.2572 72.0836 49.1875 72.168C49.1178 72.2505 49.083 72.355 49.083 72.4815V74.3822H48.5769ZM53.1467 74.4372C52.9633 74.4372 52.801 74.4051 52.6598 74.3409C52.5186 74.2749 52.4077 74.1805 52.327 74.0576C52.2481 73.9348 52.2087 73.7862 52.2087 73.612C52.2087 73.2966 52.3187 73.0619 52.5388 72.9079C52.7588 72.7539 53.1118 72.6713 53.5978 72.6603L54.1066 72.6466V72.4238C54.1066 72.2496 54.0544 72.1121 53.9498 72.0112C53.8453 71.9085 53.683 71.8572 53.463 71.8572C53.2998 71.859 53.1558 71.8975 53.0311 71.9727C52.9083 72.0479 52.8285 72.1707 52.7918 72.3413H52.3435C52.3545 72.1561 52.4068 72.0002 52.5003 71.8737C52.5938 71.7453 52.724 71.6481 52.8909 71.5821C53.0596 71.5161 53.2585 71.4831 53.4877 71.4831C53.7353 71.4831 53.9407 71.5179 54.1039 71.5876C54.2689 71.6573 54.3918 71.76 54.4725 71.8957C54.555 72.0314 54.5962 72.1982 54.5962 72.3963V74.3822H54.1616L54.1259 73.8486C54.0159 74.0705 53.8756 74.2245 53.705 74.3107C53.5363 74.395 53.3502 74.4372 53.1467 74.4372ZM53.3007 74.0714C53.3961 74.0714 53.4905 74.054 53.584 74.0191C53.6794 73.9843 53.7665 73.9375 53.8453 73.8788C53.9242 73.8183 53.9865 73.7514 54.0324 73.6781C54.08 73.6029 54.1048 73.5259 54.1066 73.447V72.9602L53.683 72.9684C53.4667 72.9721 53.2851 72.9941 53.1384 73.0344C52.9936 73.0748 52.8844 73.138 52.8111 73.2242C52.7396 73.3104 52.7038 73.4232 52.7038 73.5625C52.7038 73.7221 52.7588 73.8468 52.8689 73.9366C52.9807 74.0265 53.1247 74.0714 53.3007 74.0714ZM53.8536 70.4049H54.4312L53.6803 71.2053H53.2869L53.8536 70.4049ZM56.084 74.3822V71.5381H56.5681V72.0855C56.6158 71.9498 56.6827 71.8379 56.7689 71.7499C56.8551 71.66 56.9532 71.5931 57.0632 71.5491C57.1751 71.5051 57.2906 71.4831 57.4098 71.4831C57.452 71.4831 57.4932 71.4858 57.5336 71.4913C57.5739 71.4968 57.6051 71.506 57.6271 71.5188V72.0112C57.5996 71.9984 57.5638 71.9901 57.5198 71.9864C57.4777 71.9809 57.4419 71.9782 57.4126 71.9782C57.2989 71.9709 57.1925 71.9782 57.0935 72.0002C56.9945 72.0204 56.9074 72.0561 56.8322 72.1075C56.757 72.1588 56.6974 72.2267 56.6534 72.311C56.6112 72.3935 56.5901 72.4944 56.5901 72.6136V74.3822H56.084ZM59.3858 71.5381V74.3822H58.8935V71.5381H59.3858ZM59.3968 70.4076V70.9357H58.877V70.4076H59.3968ZM62.0302 74.4372C61.768 74.4372 61.5388 74.3813 61.3425 74.2694C61.1463 74.1557 60.9941 73.9898 60.8859 73.7716C60.7778 73.5534 60.7237 73.2866 60.7237 72.9712C60.7237 72.6741 60.7741 72.4137 60.8749 72.19C60.9758 71.9663 61.1234 71.793 61.3178 71.6701C61.514 71.5454 61.7515 71.4831 62.0302 71.4831C62.2924 71.4831 62.5198 71.5408 62.7123 71.6564C62.9067 71.7701 63.0571 71.9379 63.1634 72.1597C63.2698 72.3816 63.323 72.6521 63.323 72.9712C63.323 73.2609 63.2735 73.5158 63.1744 73.7358C63.0772 73.9559 62.9324 74.1282 62.7398 74.2529C62.5491 74.3758 62.3126 74.4372 62.0302 74.4372ZM62.0302 74.0356C62.2007 74.0356 62.3447 73.9925 62.462 73.9064C62.5794 73.8202 62.6683 73.6964 62.7288 73.535C62.7894 73.3737 62.8196 73.182 62.8196 72.9602C62.8196 72.7566 62.793 72.5742 62.7398 72.4128C62.6867 72.2496 62.6014 72.1203 62.484 72.025C62.3685 71.9296 62.2172 71.8819 62.0302 71.8819C61.8578 71.8819 61.712 71.925 61.5928 72.0112C61.4737 72.0956 61.3829 72.2184 61.3205 72.3798C61.26 72.5411 61.2298 72.7346 61.2298 72.9602C61.2298 73.16 61.2573 73.3416 61.3123 73.5048C61.3673 73.668 61.4535 73.7972 61.5708 73.8926C61.6882 73.988 61.8413 74.0356 62.0302 74.0356ZM66.5666 74.3822V70.4049H67.9117C68.1959 70.4049 68.449 70.4525 68.6708 70.5479C68.8927 70.6432 69.0669 70.7844 69.1934 70.9715C69.3218 71.1585 69.386 71.3887 69.386 71.6619C69.386 71.9259 69.3264 72.1515 69.2072 72.3385C69.0898 72.5256 68.9257 72.6677 68.7148 72.7649C68.504 72.862 68.2592 72.9106 67.9804 72.9106H67.0892V74.3822H66.5666ZM67.0865 72.4815H67.9694C68.2427 72.4815 68.4645 72.4054 68.6351 72.2533C68.8056 72.1011 68.8909 71.8938 68.8909 71.6316C68.8909 71.3676 68.8029 71.1677 68.6268 71.032C68.4508 70.8963 68.2234 70.8284 67.9447 70.8284H67.0865V72.4815ZM70.5837 74.3822V71.5381H71.0678V72.0855C71.1155 71.9498 71.1824 71.8379 71.2686 71.7499C71.3548 71.66 71.4529 71.5931 71.5629 71.5491C71.6748 71.5051 71.7903 71.4831 71.9095 71.4831C71.9516 71.4831 71.9929 71.4858 72.0332 71.4913C72.0736 71.4968 72.1048 71.506 72.1268 71.5188V72.0112C72.0993 71.9984 72.0635 71.9901 72.0195 71.9864C71.9773 71.9809 71.9416 71.9782 71.9122 71.9782C71.7985 71.9709 71.6922 71.9782 71.5932 72.0002C71.4941 72.0204 71.407 72.0561 71.3318 72.1075C71.2567 72.1588 71.1971 72.2267 71.1531 72.311C71.1109 72.3935 71.0898 72.4944 71.0898 72.6136V74.3822H70.5837ZM74.4067 74.4372C74.1445 74.4372 73.9153 74.3813 73.7191 74.2694C73.5229 74.1557 73.3707 73.9898 73.2625 73.7716C73.1543 73.5534 73.1002 73.2866 73.1002 72.9712C73.1002 72.6741 73.1506 72.4137 73.2515 72.19C73.3524 71.9663 73.5 71.793 73.6943 71.6701C73.8906 71.5454 74.128 71.4831 74.4067 71.4831C74.669 71.4831 74.8963 71.5408 75.0889 71.6564C75.2833 71.7701 75.4336 71.9379 75.54 72.1597C75.6463 72.3816 75.6995 72.6521 75.6995 72.9712C75.6995 73.2609 75.65 73.5158 75.551 73.7358C75.4538 73.9559 75.3089 74.1282 75.1164 74.2529C74.9257 74.3758 74.6891 74.4372 74.4067 74.4372ZM74.4067 74.0356C74.5773 74.0356 74.7212 73.9925 74.8386 73.9064C74.9559 73.8202 75.0449 73.6964 75.1054 73.535C75.1659 73.3737 75.1962 73.182 75.1962 72.9602C75.1962 72.7566 75.1696 72.5742 75.1164 72.4128C75.0632 72.2496 74.9779 72.1203 74.8606 72.025C74.7451 71.9296 74.5938 71.8819 74.4067 71.8819C74.2344 71.8819 74.0886 71.925 73.9694 72.0112C73.8502 72.0956 73.7594 72.2184 73.6971 72.3798C73.6366 72.5411 73.6063 72.7346 73.6063 72.9602C73.6063 73.16 73.6338 73.3416 73.6888 73.5048C73.7439 73.668 73.83 73.7972 73.9474 73.8926C74.0648 73.988 74.2179 74.0356 74.4067 74.0356ZM78.4777 71.5381V71.9094H77.7873V74.3822H77.2757V71.9094H76.6761V71.5381H77.2757V71.098C77.2757 70.8725 77.3334 70.701 77.449 70.5836C77.5645 70.4645 77.7369 70.4049 77.9661 70.4049H78.5024L78.5052 70.7652H78.0789C77.9633 70.7652 77.8845 70.7964 77.8423 70.8587C77.8001 70.9211 77.779 71.0155 77.779 71.142V71.5381H78.4777ZM79.4994 74.3822V73.7331H80.1045V74.3822H79.4994ZM83.4365 74.3822V70.4049H84.1407L85.3399 73.6891L86.5557 70.4049H87.2571V74.3822H86.7317V71.1668L85.5792 74.3822H85.1034L83.9591 71.197V74.3822H83.4365ZM89.594 74.4372C89.4107 74.4372 89.2484 74.4051 89.1072 74.3409C88.966 74.2749 88.8551 74.1805 88.7744 74.0576C88.6955 73.9348 88.6561 73.7862 88.6561 73.612C88.6561 73.2966 88.7661 73.0619 88.9862 72.9079C89.2062 72.7539 89.5592 72.6713 90.0451 72.6603L90.554 72.6466V72.4238C90.554 72.2496 90.5017 72.1121 90.3972 72.0112C90.2927 71.9085 90.1304 71.8572 89.9104 71.8572C89.7472 71.859 89.6032 71.8975 89.4785 71.9727C89.3557 72.0479 89.2759 72.1707 89.2392 72.3413H88.7909C88.8019 72.1561 88.8541 72.0002 88.9477 71.8737C89.0412 71.7453 89.1714 71.6481 89.3382 71.5821C89.5069 71.5161 89.7059 71.4831 89.9351 71.4831C90.1827 71.4831 90.388 71.5179 90.5512 71.5876C90.7163 71.6573 90.8391 71.76 90.9198 71.8957C91.0023 72.0314 91.0436 72.1982 91.0436 72.3963V74.3822H90.609L90.5732 73.8486C90.4632 74.0705 90.3229 74.2245 90.1524 74.3107C89.9837 74.395 89.7976 74.4372 89.594 74.4372ZM89.7481 74.0714C89.8434 74.0714 89.9379 74.054 90.0314 74.0191C90.1267 73.9843 90.2138 73.9375 90.2927 73.8788C90.3715 73.8183 90.4339 73.7514 90.4797 73.6781C90.5274 73.6029 90.5522 73.5259 90.554 73.447V72.9602L90.1304 72.9684C89.914 72.9721 89.7325 72.9941 89.5858 73.0344C89.4409 73.0748 89.3318 73.138 89.2585 73.2242C89.187 73.3104 89.1512 73.4232 89.1512 73.5625C89.1512 73.7221 89.2062 73.8468 89.3162 73.9366C89.4281 74.0265 89.572 74.0714 89.7481 74.0714ZM90.3009 70.4049H90.8786L90.1277 71.2053H89.7343L90.3009 70.4049ZM92.5314 74.3822V71.5381H93.0155V72.0855C93.0632 71.9498 93.1301 71.8379 93.2163 71.7499C93.3025 71.66 93.4006 71.5931 93.5106 71.5491C93.6225 71.5051 93.738 71.4831 93.8572 71.4831C93.8994 71.4831 93.9406 71.4858 93.981 71.4913C94.0213 71.4968 94.0525 71.506 94.0745 71.5188V72.0112C94.047 71.9984 94.0112 71.9901 93.9672 71.9864C93.925 71.9809 93.8893 71.9782 93.8599 71.9782C93.7462 71.9709 93.6399 71.9782 93.5409 72.0002C93.4418 72.0204 93.3547 72.0561 93.2796 72.1075C93.2044 72.1588 93.1448 72.2267 93.1008 72.311C93.0586 72.3935 93.0375 72.4944 93.0375 72.6136V74.3822H92.5314ZM95.8332 71.5381V74.3822H95.3408V71.5381H95.8332ZM95.8442 70.4076V70.9357H95.3243V70.4076H95.8442ZM98.4776 74.4372C98.2153 74.4372 97.9861 74.3813 97.7899 74.2694C97.5937 74.1557 97.4415 73.9898 97.3333 73.7716C97.2251 73.5534 97.171 73.2866 97.171 72.9712C97.171 72.6741 97.2215 72.4137 97.3223 72.19C97.4232 71.9663 97.5708 71.793 97.7652 71.6701C97.9614 71.5454 98.1988 71.4831 98.4776 71.4831C98.7398 71.4831 98.9672 71.5408 99.1597 71.6564C99.3541 71.7701 99.5045 71.9379 99.6108 72.1597C99.7172 72.3816 99.7703 72.6521 99.7703 72.9712C99.7703 73.2609 99.7208 73.5158 99.6218 73.7358C99.5246 73.9559 99.3798 74.1282 99.1872 74.2529C98.9965 74.3758 98.76 74.4372 98.4776 74.4372ZM98.4776 74.0356C98.6481 74.0356 98.7921 73.9925 98.9094 73.9064C99.0268 73.8202 99.1157 73.6964 99.1762 73.535C99.2367 73.3737 99.267 73.182 99.267 72.9602C99.267 72.7566 99.2404 72.5742 99.1872 72.4128C99.134 72.2496 99.0488 72.1203 98.9314 72.025C98.8159 71.9296 98.6646 71.8819 98.4776 71.8819C98.3052 71.8819 98.1594 71.925 98.0402 72.0112C97.921 72.0956 97.8303 72.2184 97.7679 72.3798C97.7074 72.5411 97.6771 72.7346 97.6771 72.9602C97.6771 73.16 97.7047 73.3416 97.7597 73.5048C97.8147 73.668 97.9009 73.7972 98.0182 73.8926C98.1356 73.988 98.2887 74.0356 98.4776 74.0356ZM103.014 70.4049C103.027 70.4049 103.065 70.4058 103.13 70.4076C103.196 70.4076 103.275 70.4076 103.369 70.4076C103.462 70.4058 103.56 70.4058 103.66 70.4076C103.761 70.4076 103.854 70.4085 103.938 70.4104C104.426 70.4177 104.821 70.4975 105.124 70.6497C105.428 70.8 105.651 71.0192 105.792 71.3071C105.935 71.5949 106.007 71.9489 106.007 72.3688C106.007 72.8089 105.93 73.1784 105.776 73.4773C105.623 73.7762 105.391 74.0017 105.077 74.1539C104.765 74.3061 104.368 74.3822 103.886 74.3822H103.014V70.4049ZM103.537 70.8422V73.9449H103.886C104.214 73.9449 104.497 73.8944 104.733 73.7936C104.97 73.6909 105.151 73.5249 105.278 73.2957C105.406 73.0665 105.47 72.7603 105.47 72.377C105.47 71.9938 105.408 71.6903 105.283 71.4666C105.16 71.2429 104.983 71.0833 104.75 70.988C104.517 70.8908 104.236 70.8422 103.908 70.8422H103.537ZM107.893 71.5381V74.3822H107.4V71.5381H107.893ZM107.904 70.4076V70.9357H107.384V70.4076H107.904ZM110.193 74.4372C110.01 74.4372 109.848 74.4051 109.706 74.3409C109.565 74.2749 109.454 74.1805 109.374 74.0576C109.295 73.9348 109.255 73.7862 109.255 73.612C109.255 73.2966 109.365 73.0619 109.585 72.9079C109.805 72.7539 110.158 72.6713 110.644 72.6603L111.153 72.6466V72.4238C111.153 72.2496 111.101 72.1121 110.997 72.0112C110.892 71.9085 110.73 71.8572 110.51 71.8572C110.346 71.859 110.202 71.8975 110.078 71.9727C109.955 72.0479 109.875 72.1707 109.839 72.3413H109.39C109.401 72.1561 109.453 72.0002 109.547 71.8737C109.64 71.7453 109.771 71.6481 109.938 71.5821C110.106 71.5161 110.305 71.4831 110.534 71.4831C110.782 71.4831 110.987 71.5179 111.151 71.5876C111.316 71.6573 111.438 71.76 111.519 71.8957C111.602 72.0314 111.643 72.1982 111.643 72.3963V74.3822H111.208L111.173 73.8486C111.063 74.0705 110.922 74.2245 110.752 74.3107C110.583 74.395 110.397 74.4372 110.193 74.4372ZM110.347 74.0714C110.443 74.0714 110.537 74.054 110.631 74.0191C110.726 73.9843 110.813 73.9375 110.892 73.8788C110.971 73.8183 111.033 73.7514 111.079 73.6781C111.127 73.6029 111.151 73.5259 111.153 73.447V72.9602L110.73 72.9684C110.513 72.9721 110.332 72.9941 110.185 73.0344C110.04 73.0748 109.931 73.138 109.858 73.2242C109.786 73.3104 109.75 73.4232 109.75 73.5625C109.75 73.7221 109.805 73.8468 109.916 73.9366C110.027 74.0265 110.171 74.0714 110.347 74.0714ZM114.097 74.4372C113.899 74.4372 113.715 74.407 113.544 74.3464C113.376 74.2841 113.235 74.1878 113.123 74.0576C113.012 73.9256 112.941 73.7578 112.912 73.5543H113.374C113.399 73.6661 113.445 73.7597 113.511 73.8348C113.579 73.9082 113.664 73.9641 113.764 74.0026C113.865 74.0393 113.975 74.0576 114.094 74.0576C114.285 74.0576 114.439 74.0219 114.557 73.9504C114.674 73.8788 114.733 73.7688 114.733 73.6203C114.733 73.5158 114.701 73.4323 114.639 73.37C114.579 73.3058 114.484 73.259 114.356 73.2297L113.767 73.0839C113.538 73.0289 113.355 72.9427 113.217 72.8254C113.079 72.708 113.011 72.5439 113.011 72.333C113.009 72.1661 113.048 72.0195 113.129 71.8929C113.21 71.7664 113.331 71.6665 113.492 71.5931C113.653 71.5198 113.854 71.4831 114.094 71.4831C114.402 71.4831 114.651 71.5528 114.84 71.6921C115.031 71.8297 115.13 72.0323 115.137 72.3H114.689C114.67 72.1643 114.609 72.057 114.504 71.9782C114.402 71.8975 114.263 71.8572 114.089 71.8572C113.907 71.8572 113.76 71.8938 113.646 71.9672C113.532 72.0387 113.476 72.1506 113.476 72.3028C113.476 72.4036 113.516 72.4834 113.597 72.5421C113.677 72.5989 113.796 72.6466 113.954 72.6851L114.524 72.8281C114.656 72.863 114.764 72.9088 114.848 72.9657C114.934 73.0225 115.002 73.0858 115.052 73.1554C115.103 73.2251 115.139 73.2985 115.159 73.3755C115.181 73.4507 115.192 73.5231 115.192 73.5928C115.192 73.767 115.148 73.9174 115.06 74.0439C114.974 74.1686 114.849 74.2658 114.686 74.3354C114.524 74.4033 114.328 74.4372 114.097 74.4372ZM118.093 70.8725V70.4049H121.102V70.8725H119.889V74.3822H119.377V70.8725H118.093ZM122.254 73.0784C122.254 73.2581 122.283 73.4213 122.342 73.568C122.402 73.7129 122.493 73.8284 122.614 73.9146C122.737 74.0008 122.89 74.0439 123.073 74.0439C123.255 74.0439 123.411 74.0017 123.541 73.9174C123.673 73.833 123.757 73.7111 123.794 73.5515H124.275C124.241 73.7441 124.164 73.9064 124.044 74.0384C123.925 74.1704 123.781 74.2703 123.613 74.3382C123.444 74.4042 123.268 74.4372 123.084 74.4372C122.819 74.4372 122.585 74.3795 122.383 74.2639C122.181 74.1484 122.024 73.9825 121.91 73.7661C121.796 73.5497 121.739 73.2902 121.739 72.9877C121.739 72.6888 121.791 72.4265 121.893 72.201C121.996 71.9754 122.145 71.7994 122.339 71.6729C122.535 71.5464 122.771 71.4831 123.046 71.4831C123.314 71.4831 123.54 71.5408 123.725 71.6564C123.911 71.7719 124.051 71.9351 124.146 72.146C124.243 72.355 124.292 72.6035 124.292 72.8914V73.0784H122.254ZM122.256 72.7346H123.802C123.802 72.5714 123.775 72.4247 123.72 72.2945C123.665 72.1625 123.58 72.0589 123.467 71.9837C123.355 71.9067 123.214 71.8682 123.043 71.8682C122.865 71.8682 122.718 71.9113 122.6 71.9974C122.485 72.0818 122.398 72.1909 122.339 72.3248C122.282 72.4568 122.255 72.5934 122.256 72.7346ZM126.159 71.5381V74.3822H125.667V71.5381H126.159ZM126.17 70.4076V70.9357H125.651V70.4076H126.17ZM130.182 74.3822H129.629L128.801 73.2682L127.979 74.3822H127.42L128.518 72.9051L127.508 71.5381H128.064L128.801 72.5366L129.541 71.5381H130.097L129.084 72.9051L130.182 74.3822ZM131.653 73.0784C131.653 73.2581 131.682 73.4213 131.741 73.568C131.802 73.7129 131.892 73.8284 132.013 73.9146C132.136 74.0008 132.289 74.0439 132.473 74.0439C132.654 74.0439 132.81 74.0017 132.94 73.9174C133.072 73.833 133.157 73.7111 133.193 73.5515H133.675C133.64 73.7441 133.563 73.9064 133.444 74.0384C133.324 74.1704 133.18 74.2703 133.012 74.3382C132.843 74.4042 132.667 74.4372 132.484 74.4372C132.218 74.4372 131.984 74.3795 131.782 74.2639C131.581 74.1484 131.423 73.9825 131.309 73.7661C131.195 73.5497 131.139 73.2902 131.139 72.9877C131.139 72.6888 131.19 72.4265 131.293 72.201C131.395 71.9754 131.544 71.7994 131.738 71.6729C131.934 71.5464 132.17 71.4831 132.445 71.4831C132.713 71.4831 132.939 71.5408 133.125 71.6564C133.31 71.7719 133.45 71.9351 133.545 72.146C133.643 72.355 133.691 72.6035 133.691 72.8914V73.0784H131.653ZM131.656 72.7346H133.202C133.202 72.5714 133.174 72.4247 133.119 72.2945C133.064 72.1625 132.98 72.0589 132.866 71.9837C132.754 71.9067 132.613 71.8682 132.442 71.8682C132.265 71.8682 132.117 71.9113 132 71.9974C131.884 72.0818 131.797 72.1909 131.738 72.3248C131.681 72.4568 131.654 72.5934 131.656 72.7346ZM135.559 71.5381V74.3822H135.066V71.5381H135.559ZM135.57 70.4076V70.9357H135.05V70.4076H135.57ZM137.105 74.3822V71.5381H137.589V72.0855C137.637 71.9498 137.704 71.8379 137.79 71.7499C137.876 71.66 137.974 71.5931 138.084 71.5491C138.196 71.5051 138.311 71.4831 138.431 71.4831C138.473 71.4831 138.514 71.4858 138.554 71.4913C138.595 71.4968 138.626 71.506 138.648 71.5188V72.0112C138.62 71.9984 138.585 71.9901 138.541 71.9864C138.498 71.9809 138.463 71.9782 138.433 71.9782C138.32 71.9709 138.213 71.9782 138.114 72.0002C138.015 72.0204 137.928 72.0561 137.853 72.1075C137.778 72.1588 137.718 72.2267 137.674 72.311C137.632 72.3935 137.611 72.4944 137.611 72.6136V74.3822H137.105ZM140.573 74.4372C140.39 74.4372 140.228 74.4051 140.086 74.3409C139.945 74.2749 139.834 74.1805 139.754 74.0576C139.675 73.9348 139.635 73.7862 139.635 73.612C139.635 73.2966 139.745 73.0619 139.965 72.9079C140.185 72.7539 140.538 72.6713 141.024 72.6603L141.533 72.6466V72.4238C141.533 72.2496 141.481 72.1121 141.376 72.0112C141.272 71.9085 141.11 71.8572 140.89 71.8572C140.726 71.859 140.582 71.8975 140.458 71.9727C140.335 72.0479 140.255 72.1707 140.218 72.3413H139.77C139.781 72.1561 139.833 72.0002 139.927 71.8737C140.02 71.7453 140.151 71.6481 140.318 71.5821C140.486 71.5161 140.685 71.4831 140.914 71.4831C141.162 71.4831 141.367 71.5179 141.531 71.5876C141.696 71.6573 141.818 71.76 141.899 71.8957C141.982 72.0314 142.023 72.1982 142.023 72.3963V74.3822H141.588L141.553 73.8486C141.442 74.0705 141.302 74.2245 141.132 74.3107C140.963 74.395 140.777 74.4372 140.573 74.4372ZM140.727 74.0714C140.823 74.0714 140.917 74.054 141.011 74.0191C141.106 73.9843 141.193 73.9375 141.272 73.8788C141.351 73.8183 141.413 73.7514 141.459 73.6781C141.507 73.6029 141.531 73.5259 141.533 73.447V72.9602L141.11 72.9684C140.893 72.9721 140.712 72.9941 140.565 73.0344C140.42 73.0748 140.311 73.138 140.238 73.2242C140.166 73.3104 140.13 73.4232 140.13 73.5625C140.13 73.7221 140.185 73.8468 140.295 73.9366C140.407 74.0265 140.551 74.0714 140.727 74.0714ZM146.1 72.7594V73.1609L144.705 73.1637V72.7649L146.1 72.7594ZM151.479 73.0069C151.479 73.3131 151.429 73.5726 151.328 73.7853C151.227 73.998 151.069 74.1603 150.855 74.2722C150.642 74.3822 150.365 74.4372 150.024 74.4372C149.679 74.4372 149.4 74.3804 149.185 74.2667C148.972 74.153 148.816 73.9861 148.717 73.7661C148.62 73.546 148.572 73.2756 148.572 72.9546V70.4049H149.1V73.0317C149.1 73.3526 149.179 73.5928 149.339 73.7523C149.499 73.9119 149.727 73.9916 150.024 73.9916C150.224 73.9916 150.393 73.9568 150.533 73.8871C150.674 73.8174 150.781 73.712 150.855 73.5708C150.93 73.4277 150.967 73.248 150.967 73.0317V70.4049H151.479V73.0069ZM154.544 71.5381V71.9094H153.854V74.3822H153.342V71.9094H152.743V71.5381H153.342V71.098C153.342 70.8725 153.4 70.701 153.515 70.5836C153.631 70.4645 153.803 70.4049 154.033 70.4049H154.569L154.572 70.7652H154.145C154.03 70.7652 153.951 70.7964 153.909 70.8587C153.867 70.9211 153.846 71.0155 153.846 71.142V71.5381H154.544ZM155.792 74.3822V71.5381H156.276V72.0855C156.323 71.9498 156.39 71.8379 156.476 71.7499C156.563 71.66 156.661 71.5931 156.771 71.5491C156.883 71.5051 156.998 71.4831 157.117 71.4831C157.16 71.4831 157.201 71.4858 157.241 71.4913C157.281 71.4968 157.313 71.506 157.335 71.5188V72.0112C157.307 71.9984 157.271 71.9901 157.227 71.9864C157.185 71.9809 157.149 71.9782 157.12 71.9782C157.006 71.9709 156.9 71.9782 156.801 72.0002C156.702 72.0204 156.615 72.0561 156.54 72.1075C156.465 72.1588 156.405 72.2267 156.361 72.311C156.319 72.3935 156.298 72.4944 156.298 72.6136V74.3822H155.792ZM159.26 74.4372C159.077 74.4372 158.914 74.4051 158.773 74.3409C158.632 74.2749 158.521 74.1805 158.44 74.0576C158.362 73.9348 158.322 73.7862 158.322 73.612C158.322 73.2966 158.432 73.0619 158.652 72.9079C158.872 72.7539 159.225 72.6713 159.711 72.6603L160.22 72.6466V72.4238C160.22 72.2496 160.168 72.1121 160.063 72.0112C159.959 71.9085 159.796 71.8572 159.576 71.8572C159.413 71.859 159.269 71.8975 159.145 71.9727C159.022 72.0479 158.942 72.1707 158.905 72.3413H158.457C158.468 72.1561 158.52 72.0002 158.614 71.8737C158.707 71.7453 158.837 71.6481 159.004 71.5821C159.173 71.5161 159.372 71.4831 159.601 71.4831C159.849 71.4831 160.054 71.5179 160.217 71.5876C160.382 71.6573 160.505 71.76 160.586 71.8957C160.668 72.0314 160.71 72.1982 160.71 72.3963V74.3822H160.275L160.239 73.8486C160.129 74.0705 159.989 74.2245 159.818 74.3107C159.65 74.395 159.464 74.4372 159.26 74.4372ZM159.414 74.0714C159.509 74.0714 159.604 74.054 159.697 74.0191C159.793 73.9843 159.88 73.9375 159.959 73.8788C160.038 73.8183 160.1 73.7514 160.146 73.6781C160.193 73.6029 160.218 73.5259 160.22 73.447V72.9602L159.796 72.9684C159.58 72.9721 159.399 72.9941 159.252 73.0344C159.107 73.0748 158.998 73.138 158.925 73.2242C158.853 73.3104 158.817 73.4232 158.817 73.5625C158.817 73.7221 158.872 73.8468 158.982 73.9366C159.094 74.0265 159.238 74.0714 159.414 74.0714Z" fill="#291B66"/>
</svg>
