<svg width="36" height="30" viewBox="0 0 24 30" fill="auto" xmlns="http://www.w3.org/2000/svg">
<path d="M6.75 15.75L17.25 15.75" stroke="auto" stroke-width="1.5" stroke-linecap="round"/>
<path d="M6.75 20.25L12.75 20.25" stroke="auto" stroke-width="1.5" stroke-linecap="round"/>
<path d="M2.25 4.65C2.25 3.80992 2.25 3.38988 2.41349 3.06901C2.5573 2.78677 2.78677 2.5573 3.06901 2.41349C3.38988 2.25 3.80992 2.25 4.65 2.25H13.2559C13.6228 2.25 13.8062 2.25 13.9788 2.29145C14.1319 2.32819 14.2782 2.3888 14.4124 2.47104C14.5638 2.5638 14.6935 2.69352 14.9529 2.95294L21.0471 9.04706C21.3065 9.30649 21.4362 9.4362 21.529 9.58757C21.6112 9.72178 21.6718 9.8681 21.7086 10.0212C21.75 10.1938 21.75 10.3772 21.75 10.7441V25.35C21.75 26.1901 21.75 26.6101 21.5865 26.931C21.4427 27.2132 21.2132 27.4427 20.931 27.5865C20.6101 27.75 20.1901 27.75 19.35 27.75H4.65C3.80992 27.75 3.38988 27.75 3.06901 27.5865C2.78677 27.4427 2.5573 27.2132 2.41349 26.931C2.25 26.6101 2.25 26.1901 2.25 25.35V4.65Z" fill="auto" stroke="auto" stroke-width="1.5"/>
<path d="M12.75 2.25V8.85C12.75 9.69008 12.75 10.1101 12.9135 10.431C13.0573 10.7132 13.2868 10.9427 13.569 11.0865C13.8899 11.25 14.3099 11.25 15.15 11.25H21.75" stroke="#AFEEC8" stroke-width="1.5"/>
</svg>
