<svg width="25" height="27" viewBox="0 0 25 27" fill="#cfeffd" xmlns="http://www.w3.org/2000/svg">
<path d="M17 19.7998C17 19.7998 18.6661 19.8437 19.5 19.2998C19.9626 18.9981 20.5 18.2998 20.5 18.2998C20.5 18.2998 21 17.7998 22 16.7998C23 15.7998 23.7818 16.9007 24 17.2998C24.2183 17.6989 24 18.2998 23.5 18.7998C22.719 19.5809 22 20.7998 22 20.7998L19.5 24.2998C19.5 24.2998 18.674 25.2998 18 25.2998C17 25.2998 16.5 25.2998 16.5 25.2998C16.5 25.2998 15.2802 25.3368 14.5 25.2998C10.5 25.2998 11 25.2998 9.00005 24.2998C7.1321 23.4833 6.03206 22.9635 4.00005 22.7998C3.2215 22.7371 2.99999 22.7998 2.00001 22.7998C1.24401 22.7998 1.00002 22.2998 1.00005 21.7998C1.00002 20.2998 0.999978 18.7998 1.00001 17.7998C1.00001 16.7998 2.00001 16.7998 2.00001 16.7998C2.00001 16.7998 2.60994 16.819 3 16.8C4 16.8 4.5 16 6.5 16C8 16 9.31605 16.4002 10.5 17.3C11.1596 17.8013 11.8207 18.3257 12.5 18.7998C13.3891 19.4203 17 19.7998 17 19.7998ZM17 19.7998C17 19.7998 18.5858 19.6095 19 20.2998C19.3014 20.8021 19.3335 21.3182 19 21.7998C18.6486 22.3075 17.5 22.2998 17.5 22.2998C17.5 22.2998 14.5 22.2998 12 22.2998C10 21.7998 8.50005 20.2998 8.50005 20.2998L8.00005 19.7998M15 3.79995C15.5 3.29996 15.5237 3.27629 16.5 2.29998C17 1.79998 18 1 19.5 1C21 1 21.8723 1.67232 22.5 2.29997C23.3788 3.17873 24 4.32855 23.8 6.29999C23.6579 7.70085 21.9 9.79999 21.9 9.79999C21.9 9.79999 20.9763 10.8237 20 11.8C19.4142 12.3858 18.5 13.2998 18 13.7998C15.8302 15.9696 15.5 15.7998 15 15.7998C14.5 15.7998 12.4 13.7998 12.4 13.7998C12.4 13.7998 11.4858 12.8856 10.9 12.2998C10.119 11.5188 9.00005 10.2998 9.00005 10.2998C9.00005 10.2998 8.00914 9.13288 7.50005 8.29981C6.99095 7.46674 6.50005 6.29982 6.50005 4.79981C6.50005 3.2998 7.5 1.79992 9 1.29993C10.7145 0.728441 11.7 1.11998 13 1.89996C13.576 2.24579 14.5 3.29996 15 3.79995Z" stroke="white" stroke-width="1.5"/>
</svg>
