<svg width="48" height="257" viewBox="0 0 166 257" fill="none" xmlns="http://www.w3.org/2000/svg">
<path fill-rule="evenodd" clip-rule="evenodd" d="M63.629 2.1046C31.494 10.0026 7.11 36.0426 1.449 68.5076C-0.483 79.5846 -0.483 85.5086 1.449 96.5856C6.661 126.475 29.186 152.416 57.582 161.23L64.914 163.506V174.777V186.047H49.869C35.228 186.047 34.757 186.113 32.369 188.502C30.022 190.848 29.914 191.512 29.914 203.547C29.914 215.582 30.022 216.246 32.369 218.592C34.757 220.981 35.228 221.047 49.869 221.047H64.914V236.092C64.914 250.733 64.98 251.204 67.369 253.592C69.725 255.949 70.348 256.047 82.914 256.047C95.48 256.047 96.103 255.949 98.459 253.592C100.848 251.204 100.914 250.733 100.914 236.092V221.047H115.959C130.6 221.047 131.071 220.981 133.459 218.592C135.806 216.246 135.914 215.582 135.914 203.547C135.914 191.512 135.806 190.848 133.459 188.502C131.071 186.113 130.6 186.047 115.959 186.047H100.914V174.711V163.375L106.988 161.686C119.897 158.097 134.349 148.913 144.141 138.076C181.545 96.6826 168.156 30.8956 117.572 7.5246C101.383 0.0446014 80.534 -2.0504 63.629 2.1046ZM92.036 36.4846C129.046 44.3296 142.589 88.6946 116.236 115.76C109.95 122.215 99.328 127.52 89.664 129.03C75.718 131.21 59.872 125.979 49.799 115.87C23.331 89.3076 36.612 44.5186 73.325 36.5306C81.27 34.8016 84.063 34.7946 92.036 36.4846Z" fill="#FF5EBE"/>
</svg>
