<svg width="36" height="36" viewBox="0 0 72 72" fill="auto" xmlns="http://www.w3.org/2000/svg">
<path fill-rule="evenodd" clip-rule="evenodd" d="M17.7166 8.18021C14.2476 8.90567 11.4771 10.4068 8.95897 12.9249C6.89267 14.9911 5.61904 17.0492 4.73986 19.7427C4.10109 21.6992 3.92348 23.2136 4.02799 25.8124C4.12218 28.1545 4.26773 28.9325 5.07626 31.413C7.49139 38.8219 15.1623 48.173 26.1348 57.0842C30.7646 60.8442 35.4341 64.2023 36.0328 64.2023C36.9831 64.2023 45.6532 57.5624 50.9304 52.793C59.95 44.6416 65.5383 36.842 67.5488 29.5989C67.9622 28.1091 67.9985 27.7419 68 25.0351C68.0018 21.6178 67.7529 20.3868 66.5412 17.8193C65.5762 15.7747 64.6673 14.4764 63.1112 12.9204C61.5551 11.3643 60.2568 10.4553 58.2123 9.49031C55.6351 8.27408 54.4143 8.02861 50.9965 8.03924C47.7611 8.04922 46.7828 8.22698 44.3188 9.25286C41.534 10.412 38.4061 13.0039 36.8505 15.4408C36.4457 16.0748 36.0778 16.5937 36.0328 16.5937C35.9878 16.5937 35.6199 16.0716 35.2151 15.4336C33.7335 13.098 30.9823 10.7389 28.2881 9.49424C25.855 8.36992 24.4738 8.06917 21.4779 8.01062C19.6432 7.97481 18.4394 8.0291 17.7166 8.18021ZM39.7615 26.1308C39.8993 26.2686 39.9577 27.192 39.9577 29.238V32.1489H42.8687C44.9147 32.1489 45.838 32.2073 45.9759 32.3452C46.2539 32.6232 46.2539 39.5245 45.9759 39.8025C45.838 39.9404 44.9147 39.9988 42.8687 39.9988H39.9577V42.9097C39.9577 44.9557 39.8993 45.8791 39.7615 46.0169C39.4834 46.295 32.5822 46.295 32.3041 46.0169C32.1663 45.8791 32.1079 44.9557 32.1079 42.9097V39.9988H29.1969C27.1509 39.9988 26.2276 39.9404 26.0897 39.8025C25.8117 39.5245 25.8117 32.6232 26.0897 32.3452C26.2276 32.2073 27.1509 32.1489 29.1969 32.1489H32.1079V29.238C32.1079 27.192 32.1663 26.2686 32.3041 26.1308C32.5822 25.8527 39.4834 25.8527 39.7615 26.1308Z" fill="auto"/>
</svg>
