<svg width="36" height="36" viewBox="0 0 36 36" fill="none" xmlns="http://www.w3.org/2000/svg">
<path d="M29 24.0731V17.7126C29 15.6759 29 14.6576 28.5883 13.7625C28.1766 12.8674 27.4035 12.2047 25.8571 10.8793L24.3571 9.59354C21.5621 7.19785 20.1647 6 18.5 6C16.8353 6 15.4379 7.19785 12.6429 9.59354L12.6429 9.59354L11.1429 10.8793C9.59655 12.2047 8.82338 12.8674 8.41169 13.7625C8 14.6576 8 15.6759 8 17.7126V24.0731C8 26.9016 8 28.3158 8.87868 29.1945C9.75736 30.0731 11.4216 30 14.25 30H15V21.5H21V30H21.75C24.5784 30 27.2426 30.0731 28.1213 29.1945C29 28.3158 29 26.9016 29 24.0731Z" fill="#74c1eb" stroke="#74c1eb" stroke-width="1.5" stroke-linecap="round"/>
<path d="M15.75 21H20.25C20.8023 21 21.25 21.4477 21.25 22V30.25H14.75V22C14.75 21.4477 15.1977 21 15.75 21Z" stroke="#74c1eb" stroke-linecap="round" stroke-linejoin="round"/>
</svg>
