<svg width="36" height="36" viewBox="0 0 36 36" fill="none" xmlns="http://www.w3.org/2000/svg">
<path d="M8 17.7126C8 15.6759 8 14.6576 8.41169 13.7625C8.82338 12.8674 9.59655 12.2047 11.1429 10.8793L12.6429 9.59354C15.4379 7.19785 16.8353 6 18.5 6C20.1647 6 21.5621 7.19785 24.3571 9.59354L25.8571 10.8793C27.4035 12.2047 28.1766 12.8674 28.5883 13.7625C29 14.6576 29 15.6759 29 17.7126V24.0731C29 26.9016 29 28.3158 28.1213 29.1945C27.2426 30.0732 25.8284 30.0732 23 30.0732H14C11.1716 30.0732 9.75736 30.0732 8.87868 29.1945C8 28.3158 8 26.9016 8 24.0731V17.7126Z" stroke-width="1.5"/>
<path d="M21.75 29.5V22C21.75 21.1716 21.0784 20.5 20.25 20.5H15.75C14.9216 20.5 14.25 21.1716 14.25 22V29.5" stroke-width="1.5" stroke-linecap="round" stroke-linejoin="round"/>
</svg>
