<svg width="36" height="36" viewBox="0 0 36 36" fill="auto" stroke="auto" xmlns="http://www.w3.org/2000/svg">
<path fill-rule="evenodd" clip-rule="evenodd" d="M29 24.0731V17.7126C29 15.6759 29 14.6576 28.5883 13.7625C28.1766 12.8674 27.4035 12.2047 25.8571 10.8793L24.3571 9.59354C21.5621 7.19785 20.1647 6 18.5 6C16.8353 6 15.4379 7.19785 12.6429 9.59354L11.1429 10.8793C9.59655 12.2047 8.82338 12.8674 8.41169 13.7625C8 14.6576 8 15.6759 8 17.7126V24.0731C8 26.9016 8 28.3158 8.87868 29.1945C9.69274 30.0085 11.181 30.0056 13.6447 30.0008C13.8403 30.0004 14.042 30 14.25 30H15V21.5H21V30H21.75C21.9533 30 22.1558 30.0004 22.3568 30.0008C24.9522 30.0056 27.3058 30.01 28.1213 29.1945C29 28.3158 29 26.9016 29 24.0731Z" fill="auto"/>
<path d="M15 30V21.5H21V30M15 30H14.25C14.042 30 13.8403 30.0004 13.6447 30.0008C11.181 30.0056 9.69274 30.0085 8.87868 29.1945C8 28.3158 8 26.9016 8 24.0731V17.7126C8 15.6759 8 14.6576 8.41169 13.7625C8.82338 12.8674 9.59655 12.2047 11.1429 10.8793L12.6429 9.59354C15.4379 7.19785 16.8353 6 18.5 6C20.1647 6 21.5621 7.19785 24.3571 9.59354L25.8571 10.8793C27.4035 12.2047 28.1766 12.8674 28.5883 13.7625C29 14.6576 29 15.6759 29 17.7126V24.0731C29 26.9016 29 28.3158 28.1213 29.1945C27.3058 30.01 24.9522 30.0056 22.3568 30.0008C22.1558 30.0004 21.9533 30 21.75 30H21M15 30H21" stroke="auto" stroke-width="1.5" stroke-linecap="round"/>
</svg>
