<svg id="svg" version="1.1" xmlns="http://www.w3.org/2000/svg" xmlns:xlink="http://www.w3.org/1999/xlink" width="100" height="100" viewBox="0, 0, 10,400"><g id="svgg"><path id="path0" d="M234.000 18.811 C 234.000 19.025,233.640 19.200,233.200 19.200 C 232.760 19.200,232.400 19.380,232.400 19.600 C 232.400 19.820,232.130 20.000,231.800 20.000 C 231.470 20.000,231.200 20.180,231.200 20.400 C 231.200 20.620,231.002 20.800,230.760 20.800 C 229.639 20.800,227.731 23.628,227.966 24.941 C 228.000 25.129,227.661 25.600,227.214 25.988 C 226.641 26.485,226.400 27.182,226.400 28.347 C 226.400 29.256,226.232 30.000,226.027 30.000 C 225.495 30.000,225.456 48.664,225.988 48.992 C 226.215 49.133,226.400 50.032,226.400 50.990 C 226.400 51.949,226.590 52.797,226.822 52.874 C 227.054 52.951,227.297 53.281,227.361 53.607 C 227.607 54.841,228.099 55.586,228.504 55.336 C 228.757 55.180,228.804 55.270,228.623 55.563 C 228.453 55.838,228.632 56.393,229.031 56.835 C 229.575 57.436,229.817 57.500,230.064 57.109 C 230.284 56.763,230.390 56.888,230.394 57.500 C 230.397 57.995,230.535 58.413,230.700 58.430 C 232.218 58.580,233.101 58.928,233.658 59.595 C 234.303 60.369,234.985 60.384,270.428 60.396 C 305.369 60.407,307.604 60.456,306.437 61.177 C 306.124 61.371,306.029 61.723,306.211 62.017 C 306.412 62.343,306.362 62.424,306.072 62.245 C 305.473 61.874,299.474 67.873,299.845 68.472 C 300.013 68.745,299.944 68.813,299.670 68.643 C 299.115 68.301,295.462 71.853,295.802 72.404 C 295.934 72.617,295.804 72.700,295.514 72.588 C 295.224 72.477,294.720 72.775,294.393 73.251 C 293.690 74.276,291.131 76.842,288.859 78.800 C 287.966 79.570,287.315 80.434,287.413 80.721 C 287.511 81.007,287.418 81.135,287.206 81.004 C 286.703 80.693,280.693 86.703,281.004 87.206 C 281.135 87.418,281.007 87.511,280.721 87.413 C 280.434 87.315,279.570 87.966,278.800 88.859 C 276.842 91.131,274.276 93.690,273.251 94.393 C 272.775 94.720,272.477 95.224,272.588 95.514 C 272.700 95.804,272.617 95.934,272.404 95.802 C 271.853 95.462,268.301 99.115,268.643 99.670 C 268.813 99.944,268.745 100.013,268.472 99.845 C 267.873 99.474,261.874 105.473,262.245 106.072 C 262.416 106.349,262.344 106.413,262.059 106.236 C 261.620 105.965,260.400 106.830,260.400 107.411 C 260.400 107.761,257.761 110.400,257.411 110.400 C 256.830 110.400,255.965 111.620,256.236 112.059 C 256.413 112.344,256.349 112.416,256.072 112.245 C 255.473 111.874,249.474 117.873,249.845 118.472 C 250.013 118.745,249.944 118.813,249.670 118.643 C 249.115 118.301,245.462 121.853,245.802 122.404 C 245.934 122.617,245.804 122.700,245.514 122.588 C 245.224 122.477,244.720 122.775,244.393 123.251 C 243.690 124.276,241.131 126.842,238.859 128.800 C 237.966 129.570,237.315 130.434,237.413 130.721 C 237.511 131.007,237.418 131.135,237.206 131.004 C 236.703 130.693,230.693 136.703,231.004 137.206 C 231.135 137.418,231.007 137.511,230.721 137.413 C 230.434 137.315,229.570 137.966,228.800 138.859 C 226.842 141.131,224.276 143.690,223.251 144.393 C 222.775 144.720,222.477 145.224,222.588 145.514 C 222.700 145.804,222.612 145.931,222.394 145.796 C 222.175 145.661,221.109 146.462,220.024 147.575 C 218.129 149.521,217.546 149.944,217.647 149.300 C 217.804 148.307,217.531 147.925,216.800 148.116 C 216.360 148.231,216.000 148.149,216.000 147.934 C 216.000 147.347,214.937 146.400,214.278 146.400 C 213.959 146.400,213.474 146.130,213.200 145.800 C 212.926 145.470,212.463 145.200,212.171 145.200 C 211.879 145.200,211.474 144.903,211.270 144.540 C 211.025 144.101,210.603 143.958,210.011 144.113 C 209.521 144.241,209.220 144.247,209.341 144.125 C 209.695 143.771,208.447 142.724,208.000 143.000 C 207.777 143.138,207.487 142.970,207.355 142.628 C 207.224 142.285,206.954 142.105,206.755 142.228 C 206.557 142.350,206.286 142.169,206.154 141.825 C 206.022 141.481,205.743 141.200,205.534 141.200 C 205.324 141.200,205.263 141.378,205.397 141.595 C 205.537 141.822,205.377 141.889,205.021 141.753 C 204.679 141.622,204.400 141.264,204.400 140.957 C 204.400 140.651,204.040 140.400,203.600 140.400 C 203.160 140.400,202.800 140.201,202.800 139.957 C 202.800 139.714,202.535 139.616,202.211 139.741 C 201.886 139.865,201.465 139.688,201.275 139.348 C 201.084 139.007,200.809 138.744,200.664 138.764 C 199.758 138.887,199.254 138.710,198.492 138.000 C 198.020 137.560,197.356 137.200,197.017 137.200 C 196.678 137.200,196.400 137.012,196.400 136.782 C 196.400 136.553,196.175 136.394,195.900 136.430 C 194.669 136.590,193.574 136.365,193.800 136.000 C 193.936 135.780,193.677 135.600,193.224 135.600 C 192.771 135.600,192.400 135.420,192.400 135.200 C 192.400 134.980,191.950 134.800,191.400 134.800 C 190.850 134.800,190.400 134.605,190.400 134.367 C 190.400 134.128,190.175 134.014,189.900 134.114 C 189.625 134.213,188.860 134.022,188.200 133.690 C 186.012 132.589,185.806 132.521,185.010 132.639 C 184.575 132.703,184.121 132.595,184.000 132.399 C 183.878 132.203,183.161 131.934,182.406 131.801 C 181.651 131.668,180.819 131.381,180.557 131.164 C 180.295 130.947,179.609 130.855,179.033 130.960 C 178.456 131.064,178.076 131.000,178.190 130.817 C 178.444 130.406,177.452 130.000,176.191 130.000 C 175.672 130.000,175.133 129.815,174.994 129.589 C 174.854 129.364,174.168 129.176,173.470 129.172 C 170.283 129.153,169.790 129.109,169.601 128.826 C 169.334 128.424,166.327 127.959,166.573 128.357 C 166.679 128.527,166.520 128.667,166.221 128.667 C 165.921 128.667,165.768 128.427,165.881 128.133 C 166.013 127.790,165.777 127.600,165.219 127.600 C 164.633 127.600,164.450 127.761,164.653 128.100 C 164.866 128.454,164.761 128.443,164.292 128.064 C 163.833 127.691,161.757 127.461,157.515 127.312 C 154.152 127.194,151.310 126.958,151.200 126.788 C 150.918 126.352,142.000 126.402,142.000 126.840 C 142.000 127.038,139.660 127.200,136.800 127.200 C 133.940 127.200,131.600 127.338,131.600 127.507 C 131.600 127.676,130.385 127.840,128.900 127.872 C 125.359 127.947,122.327 128.382,121.682 128.907 C 121.397 129.139,120.505 129.303,119.700 129.273 C 118.895 129.243,118.123 129.400,117.986 129.623 C 117.848 129.846,117.120 130.094,116.368 130.174 C 115.615 130.254,114.730 130.412,114.400 130.526 C 114.070 130.640,113.298 130.843,112.684 130.978 C 112.070 131.113,111.655 131.366,111.763 131.539 C 111.870 131.713,111.407 131.774,110.735 131.676 C 110.008 131.569,109.386 131.700,109.201 131.998 C 109.031 132.274,108.428 132.500,107.862 132.500 C 107.296 132.500,106.871 132.703,106.917 132.950 C 106.963 133.198,106.612 133.347,106.135 133.281 C 105.660 133.215,105.154 133.350,105.012 133.581 C 104.869 133.811,104.133 134.000,103.376 134.000 C 102.619 134.000,102.000 134.180,102.000 134.400 C 102.000 134.620,101.627 134.800,101.171 134.800 C 100.716 134.800,100.081 135.062,99.760 135.383 C 99.439 135.704,98.912 135.864,98.588 135.740 C 98.265 135.616,98.000 135.714,98.000 135.957 C 98.000 136.201,97.728 136.400,97.395 136.400 C 97.062 136.400,96.477 136.559,96.095 136.753 C 95.713 136.948,94.860 137.353,94.200 137.653 C 93.540 137.954,92.671 138.560,92.270 139.000 C 91.868 139.440,91.653 139.575,91.793 139.300 C 91.933 139.025,91.857 138.800,91.624 138.800 C 91.391 138.800,91.200 138.980,91.200 139.200 C 91.200 139.420,90.840 139.600,90.400 139.600 C 89.960 139.600,89.600 139.780,89.600 140.000 C 89.600 140.220,89.240 140.400,88.800 140.400 C 88.360 140.400,88.045 140.625,88.100 140.900 C 88.162 141.209,87.855 141.352,87.300 141.275 C 86.805 141.206,86.400 141.341,86.400 141.575 C 86.400 141.809,86.040 142.000,85.600 142.000 C 85.160 142.000,84.800 142.180,84.800 142.400 C 84.800 142.620,84.429 142.800,83.976 142.800 C 83.523 142.800,83.264 142.980,83.400 143.200 C 83.539 143.425,83.220 143.600,82.670 143.600 C 82.018 143.600,81.621 143.876,81.476 144.430 C 81.320 145.026,80.997 145.224,80.330 145.130 C 79.748 145.049,79.437 145.187,79.500 145.500 C 79.555 145.775,79.465 145.964,79.300 145.921 C 78.754 145.777,77.200 146.447,77.200 146.827 C 77.200 147.032,76.840 147.200,76.400 147.200 C 75.960 147.200,75.600 147.350,75.600 147.532 C 75.600 147.715,75.105 148.120,74.500 148.432 C 73.021 149.196,72.301 149.916,72.575 150.360 C 72.699 150.561,72.447 150.633,72.015 150.520 C 71.217 150.311,69.832 151.298,70.286 151.752 C 70.422 151.889,70.143 152.000,69.667 152.000 C 69.190 152.000,68.800 152.180,68.800 152.400 C 68.800 152.620,68.612 152.800,68.382 152.800 C 67.882 152.800,66.319 154.312,65.680 155.414 C 65.430 155.846,65.219 155.975,65.212 155.700 C 65.195 154.982,64.400 155.080,64.400 155.800 C 64.400 156.130,64.228 156.400,64.018 156.400 C 63.590 156.400,62.098 157.856,61.229 159.121 C 60.915 159.578,60.555 159.942,60.429 159.929 C 59.514 159.834,59.144 160.078,59.357 160.633 C 59.510 161.031,59.418 161.206,59.109 161.103 C 58.575 160.925,58.359 161.075,55.987 163.269 C 55.114 164.076,54.386 165.066,54.368 165.469 C 54.351 165.874,54.248 165.981,54.138 165.708 C 53.861 165.024,49.915 169.202,50.182 169.897 C 50.297 170.197,50.226 170.340,50.024 170.215 C 49.823 170.090,49.543 170.351,49.402 170.794 C 49.261 171.237,48.957 171.600,48.727 171.600 C 48.047 171.600,45.565 174.531,45.777 175.083 C 45.884 175.362,45.757 175.548,45.495 175.495 C 45.233 175.443,44.953 175.834,44.873 176.365 C 44.766 177.076,44.639 177.187,44.391 176.786 C 44.144 176.385,43.984 176.525,43.785 177.318 C 43.636 177.910,43.354 178.295,43.157 178.174 C 42.961 178.052,42.800 178.233,42.800 178.576 C 42.800 178.919,42.620 179.200,42.400 179.200 C 42.180 179.200,42.000 179.481,42.000 179.824 C 42.000 180.198,41.813 180.332,41.532 180.158 C 41.217 179.964,41.148 180.087,41.319 180.534 C 41.486 180.969,41.371 181.200,40.987 181.200 C 40.664 181.200,40.377 181.470,40.350 181.800 C 40.254 182.953,40.197 183.136,39.836 183.467 C 39.619 183.665,39.609 183.558,39.813 183.200 C 40.107 182.683,40.060 182.676,39.477 183.149 C 39.105 183.451,38.800 183.863,38.800 184.066 C 38.800 184.268,38.440 184.820,38.000 185.292 C 37.560 185.764,37.200 186.387,37.200 186.675 C 37.200 186.964,36.999 187.200,36.753 187.200 C 36.504 187.200,36.399 187.553,36.516 188.000 C 36.631 188.440,36.549 188.800,36.334 188.800 C 35.728 188.800,34.800 189.872,34.800 190.571 C 34.800 190.917,34.620 191.200,34.400 191.200 C 34.180 191.200,34.000 191.560,34.000 192.000 C 34.000 192.440,33.854 192.800,33.675 192.800 C 33.496 192.800,33.102 193.430,32.800 194.200 C 32.498 194.970,32.104 195.600,31.925 195.600 C 31.746 195.600,31.600 196.050,31.600 196.600 C 31.600 197.150,31.420 197.600,31.200 197.600 C 30.980 197.600,30.800 197.870,30.800 198.200 C 30.800 198.530,30.599 198.800,30.353 198.800 C 30.097 198.800,29.985 199.211,30.091 199.763 C 30.223 200.454,30.123 200.668,29.738 200.521 C 29.372 200.380,29.200 200.648,29.200 201.357 C 29.200 201.931,29.064 202.400,28.898 202.400 C 28.507 202.400,27.534 204.593,27.620 205.276 C 27.721 206.074,27.152 207.600,26.753 207.600 C 26.559 207.600,26.400 208.140,26.400 208.800 C 26.400 209.460,26.220 210.000,26.000 210.000 C 25.780 210.000,25.600 210.360,25.600 210.800 C 25.600 211.240,25.399 211.600,25.153 211.600 C 24.907 211.600,24.798 211.951,24.911 212.381 C 25.023 212.811,24.870 213.486,24.570 213.881 C 24.271 214.277,24.020 215.196,24.013 215.924 C 24.005 216.702,23.835 217.145,23.600 217.000 C 23.367 216.856,23.200 217.263,23.200 217.976 C 23.200 218.649,23.020 219.200,22.800 219.200 C 22.580 219.200,22.400 219.909,22.400 220.776 C 22.400 221.643,22.226 222.460,22.013 222.592 C 21.800 222.724,21.650 223.470,21.679 224.251 C 21.708 225.032,21.539 225.790,21.304 225.936 C 21.068 226.082,20.903 226.951,20.937 227.867 C 20.972 228.790,20.821 229.504,20.600 229.467 C 20.380 229.430,20.143 230.295,20.074 231.390 C 20.005 232.484,19.801 233.564,19.621 233.790 C 19.441 234.015,19.271 235.370,19.243 236.800 C 19.215 238.230,19.014 239.460,18.796 239.533 C 18.578 239.607,18.400 240.112,18.400 240.657 C 18.400 241.275,18.565 241.545,18.840 241.375 C 19.149 241.184,19.165 241.326,18.894 241.852 C 18.683 242.263,18.507 245.096,18.504 248.146 C 18.501 252.411,18.373 253.772,17.950 254.039 C 17.589 254.268,17.564 254.390,17.875 254.394 C 18.136 254.397,18.354 254.715,18.358 255.100 C 18.481 266.847,18.559 268.615,18.995 269.456 C 19.265 269.976,19.419 271.288,19.337 272.373 C 19.245 273.597,19.366 274.456,19.656 274.635 C 19.973 274.830,20.018 274.742,19.798 274.362 C 19.618 274.053,19.616 273.931,19.793 274.091 C 19.970 274.250,20.134 275.420,20.157 276.691 C 20.181 277.986,20.376 278.971,20.600 278.933 C 20.835 278.894,20.941 279.611,20.857 280.670 C 20.778 281.662,20.913 282.673,21.157 282.917 C 21.401 283.161,21.600 283.943,21.600 284.656 C 21.600 285.369,21.780 286.064,22.000 286.200 C 22.220 286.336,22.400 286.962,22.400 287.590 C 22.400 288.219,22.603 288.801,22.850 288.883 C 23.098 288.966,23.299 289.566,23.297 290.217 C 23.296 290.868,23.453 291.500,23.646 291.622 C 23.838 291.745,24.036 292.330,24.085 292.922 C 24.134 293.515,24.315 294.000,24.487 294.000 C 24.659 294.000,24.800 294.540,24.800 295.200 C 24.800 295.860,24.980 296.400,25.200 296.400 C 25.420 296.400,25.600 296.921,25.600 297.557 C 25.600 298.238,25.858 298.813,26.225 298.954 C 26.569 299.086,26.762 299.338,26.654 299.513 C 26.336 300.027,27.873 304.209,28.342 304.105 C 28.578 304.052,28.668 304.277,28.543 304.605 C 28.417 304.932,28.508 305.200,28.745 305.200 C 28.981 305.200,29.071 305.470,28.945 305.800 C 28.818 306.130,28.924 306.400,29.181 306.400 C 29.437 306.400,29.533 306.584,29.394 306.809 C 29.109 307.270,30.030 309.600,30.498 309.600 C 30.664 309.600,30.800 309.960,30.800 310.400 C 30.800 310.840,31.051 311.200,31.357 311.200 C 31.664 311.200,32.022 311.479,32.153 311.821 C 32.289 312.177,32.222 312.337,31.995 312.197 C 31.778 312.063,31.600 312.143,31.600 312.376 C 31.600 312.609,31.853 312.800,32.163 312.800 C 32.514 312.800,32.652 313.079,32.530 313.545 C 32.393 314.070,32.610 314.373,33.268 314.572 C 33.824 314.740,33.999 314.937,33.700 315.060 C 33.004 315.348,33.073 316.000,33.800 316.000 C 34.130 316.000,34.355 316.225,34.300 316.500 C 34.245 316.775,34.407 316.961,34.659 316.914 C 34.941 316.861,35.032 317.155,34.896 317.676 C 34.744 318.256,34.821 318.434,35.137 318.239 C 35.582 317.964,35.768 318.438,35.630 319.500 C 35.594 319.775,35.753 320.000,35.982 320.000 C 36.212 320.000,36.400 320.261,36.400 320.580 C 36.400 320.899,36.715 321.344,37.100 321.568 C 37.485 321.792,37.625 321.981,37.411 321.988 C 37.197 321.995,37.422 322.280,37.911 322.623 C 38.400 322.965,38.800 323.595,38.800 324.023 C 38.800 324.450,38.980 324.800,39.200 324.800 C 39.420 324.800,39.600 324.993,39.600 325.229 C 39.600 325.821,40.649 326.818,40.952 326.514 C 41.089 326.378,41.200 326.681,41.200 327.186 C 41.200 327.692,41.515 328.397,41.900 328.753 C 42.285 329.109,42.946 330.030,43.369 330.800 C 43.792 331.570,44.557 332.596,45.069 333.081 C 45.581 333.565,46.006 334.105,46.013 334.281 C 46.036 334.814,47.355 336.222,48.100 336.507 C 48.485 336.654,48.800 337.061,48.800 337.411 C 48.800 337.790,48.987 337.932,49.262 337.762 C 49.535 337.593,49.616 337.651,49.459 337.904 C 49.097 338.490,51.181 340.893,51.834 340.642 C 52.167 340.515,52.278 340.653,52.137 341.020 C 51.994 341.392,52.169 341.600,52.624 341.600 C 53.014 341.600,53.224 341.709,53.091 341.843 C 52.774 342.160,53.709 343.171,54.100 342.934 C 54.265 342.835,54.400 343.044,54.400 343.400 C 54.400 343.756,54.580 343.936,54.800 343.800 C 55.020 343.664,55.200 343.739,55.200 343.966 C 55.200 344.666,58.739 347.974,58.946 347.467 C 59.122 347.037,59.250 347.454,59.179 348.226 C 59.148 348.575,61.344 350.213,61.692 350.100 C 61.862 350.045,62.000 350.289,62.000 350.643 C 62.000 351.040,62.222 351.201,62.580 351.063 C 62.988 350.907,63.086 351.033,62.910 351.490 C 62.726 351.970,62.830 352.074,63.310 351.890 C 63.742 351.724,64.043 351.905,64.210 352.431 C 64.531 353.443,66.219 354.559,66.844 354.173 C 67.108 354.010,67.222 354.041,67.097 354.243 C 66.973 354.444,67.080 354.883,67.335 355.219 C 67.968 356.050,70.400 357.732,70.400 357.338 C 70.400 357.164,70.680 357.422,71.023 357.911 C 71.365 358.400,71.985 358.800,72.400 358.800 C 72.815 358.800,73.390 359.115,73.677 359.500 C 73.965 359.885,74.695 360.455,75.300 360.768 C 75.905 361.080,76.400 361.485,76.400 361.668 C 76.400 361.850,76.588 362.000,76.817 362.000 C 77.046 362.000,77.620 362.360,78.092 362.800 C 78.564 363.240,79.187 363.600,79.475 363.600 C 79.764 363.600,80.000 363.780,80.000 364.000 C 80.000 364.220,80.191 364.400,80.424 364.400 C 80.657 364.400,80.728 364.207,80.582 363.970 C 80.436 363.734,80.687 363.772,81.140 364.055 C 81.593 364.338,81.883 364.650,81.784 364.749 C 81.469 365.064,83.185 366.056,83.601 365.800 C 83.820 365.664,84.000 365.833,84.000 366.176 C 84.000 366.533,84.342 366.800,84.800 366.800 C 85.240 366.800,85.600 366.980,85.600 367.200 C 85.600 367.420,85.960 367.600,86.400 367.600 C 86.840 367.600,87.200 367.780,87.200 368.000 C 87.200 368.220,87.560 368.400,88.000 368.400 C 88.440 368.400,88.800 368.580,88.800 368.800 C 88.800 369.020,89.160 369.200,89.600 369.200 C 90.040 369.200,90.400 369.380,90.400 369.600 C 90.400 369.820,90.760 370.000,91.200 370.000 C 91.640 370.000,92.000 370.180,92.000 370.400 C 92.000 370.620,92.191 370.800,92.424 370.800 C 92.657 370.800,92.718 370.575,92.559 370.300 C 92.401 370.025,92.717 370.205,93.261 370.700 C 93.806 371.195,94.555 371.600,94.926 371.600 C 95.297 371.600,95.600 371.780,95.600 372.000 C 95.600 372.587,96.795 372.489,96.825 371.900 C 96.839 371.625,97.013 371.805,97.212 372.300 C 97.451 372.893,97.911 373.200,98.564 373.200 C 99.108 373.200,99.674 373.396,99.822 373.635 C 99.969 373.874,100.430 373.981,100.845 373.872 C 101.260 373.764,101.717 373.866,101.861 374.099 C 102.028 374.369,101.919 374.407,101.562 374.203 C 101.173 373.981,101.123 374.014,101.400 374.310 C 101.620 374.544,102.695 374.827,103.790 374.938 C 104.884 375.049,105.844 375.333,105.923 375.570 C 106.002 375.806,106.692 376.000,107.457 376.000 C 108.453 376.000,108.767 376.142,108.565 376.500 C 108.339 376.900,108.390 376.900,108.821 376.500 C 109.361 375.999,110.363 375.771,109.873 376.261 C 109.506 376.627,111.503 377.600,112.622 377.600 C 113.134 377.600,113.664 377.780,113.800 378.000 C 113.936 378.220,114.721 378.400,115.544 378.400 C 116.367 378.400,117.263 378.623,117.537 378.897 C 117.932 379.292,118.110 379.272,118.411 378.797 C 118.662 378.398,118.790 378.366,118.794 378.700 C 118.797 378.975,119.250 379.200,119.800 379.200 C 120.350 379.200,120.800 379.353,120.800 379.539 C 120.800 379.726,121.829 379.889,123.087 379.901 C 124.369 379.914,125.439 380.117,125.521 380.362 C 125.608 380.623,126.778 380.800,128.410 380.800 C 129.918 380.800,131.260 380.973,131.390 381.184 C 131.535 381.419,137.242 381.565,146.023 381.561 C 154.911 381.556,160.329 381.409,160.185 381.176 C 159.982 380.848,164.314 380.553,165.957 380.783 C 166.264 380.826,166.644 380.653,166.802 380.397 C 166.959 380.142,167.922 379.933,168.941 379.933 C 169.960 379.933,170.896 379.768,171.021 379.567 C 171.145 379.365,171.921 379.200,172.744 379.200 C 173.567 379.200,174.415 379.025,174.629 378.811 C 174.842 378.598,175.373 378.368,175.809 378.300 C 176.244 378.232,176.853 378.019,177.162 377.827 C 177.546 377.587,177.634 377.622,177.438 377.938 C 177.266 378.217,177.417 378.400,177.819 378.400 C 178.205 378.400,178.401 378.179,178.284 377.875 C 178.138 377.493,178.409 377.399,179.286 377.527 C 179.950 377.625,180.616 377.497,180.774 377.242 C 180.931 376.989,181.721 376.756,182.529 376.726 C 183.338 376.695,184.000 376.520,184.000 376.335 C 184.000 376.151,184.521 376.000,185.157 376.000 C 185.838 376.000,186.413 375.742,186.554 375.375 C 186.686 375.031,186.996 374.874,187.243 375.027 C 187.751 375.340,192.400 373.964,192.400 373.500 C 192.400 373.335,192.839 373.200,193.376 373.200 C 193.913 373.200,194.464 373.020,194.600 372.800 C 194.736 372.580,195.177 372.400,195.581 372.400 C 195.984 372.400,196.417 372.133,196.542 371.807 C 196.672 371.469,197.035 371.315,197.385 371.450 C 197.723 371.579,198.000 371.486,198.000 371.243 C 198.000 370.999,198.456 370.800,199.013 370.800 C 199.569 370.800,200.128 370.531,200.254 370.202 C 200.381 369.874,200.670 369.719,200.897 369.860 C 201.124 370.000,201.661 369.684,202.090 369.158 C 202.519 368.631,202.739 368.448,202.579 368.752 C 202.419 369.055,202.449 369.231,202.644 369.141 C 205.703 367.743,206.400 367.360,206.400 367.082 C 206.400 366.901,206.192 366.881,205.938 367.038 C 205.667 367.206,205.584 367.149,205.739 366.899 C 205.883 366.666,206.361 366.569,206.800 366.684 C 207.247 366.801,207.600 366.696,207.600 366.447 C 207.600 366.201,207.870 366.000,208.200 366.000 C 208.530 366.000,208.800 365.719,208.800 365.376 C 208.800 365.033,208.980 364.864,209.200 365.000 C 209.420 365.136,209.603 365.012,209.606 364.724 C 209.611 364.343,209.718 364.364,210.000 364.800 C 210.258 365.200,210.390 365.233,210.394 364.900 C 210.397 364.625,210.691 364.400,211.047 364.400 C 211.403 364.400,212.210 363.815,212.841 363.100 C 213.536 362.312,213.990 362.032,213.994 362.389 C 213.998 362.783,214.207 362.683,214.623 362.089 C 214.965 361.600,215.529 361.200,215.876 361.200 C 216.222 361.200,216.797 360.883,217.153 360.494 C 217.509 360.106,218.495 359.431,219.344 358.994 C 220.192 358.558,221.660 357.525,222.605 356.700 C 223.550 355.875,224.443 355.200,224.590 355.200 C 225.060 355.200,225.971 354.104,225.714 353.848 C 225.578 353.711,225.777 353.600,226.157 353.600 C 226.537 353.600,226.736 353.420,226.600 353.200 C 226.464 352.980,226.633 352.800,226.976 352.800 C 227.319 352.800,227.600 352.620,227.600 352.400 C 227.600 352.180,227.870 352.000,228.200 352.000 C 228.530 352.000,228.800 351.736,228.800 351.413 C 228.800 351.055,229.035 350.915,229.400 351.055 C 230.000 351.286,230.266 350.615,229.700 350.299 C 229.535 350.207,229.638 350.191,229.930 350.264 C 230.609 350.435,231.728 349.331,231.405 348.808 C 231.266 348.583,231.413 348.507,231.743 348.634 C 232.106 348.773,232.427 348.544,232.591 348.029 C 232.736 347.573,233.157 347.197,233.527 347.194 C 234.108 347.189,234.118 347.135,233.600 346.800 C 233.089 346.470,233.106 346.411,233.713 346.406 C 234.105 346.403,234.589 345.995,234.788 345.500 C 234.987 345.005,235.161 344.830,235.175 345.111 C 235.189 345.391,236.018 344.803,237.019 343.802 C 238.019 342.802,238.729 341.810,238.598 341.596 C 238.466 341.383,238.610 341.306,238.917 341.424 C 239.411 341.613,241.600 339.309,241.600 338.601 C 241.600 338.462,242.500 337.471,243.600 336.400 C 244.700 335.329,245.600 334.170,245.600 333.826 C 245.600 333.482,245.780 333.200,246.000 333.200 C 246.220 333.200,246.400 332.932,246.400 332.603 C 246.400 332.275,246.760 331.782,247.200 331.507 C 247.640 331.232,248.000 330.847,248.000 330.651 C 248.000 330.454,248.332 330.003,248.737 329.647 C 249.777 328.734,250.488 327.266,250.153 326.724 C 249.964 326.418,250.092 326.350,250.534 326.519 C 250.900 326.660,251.200 326.593,251.200 326.371 C 251.200 326.148,251.554 325.587,251.986 325.123 C 252.419 324.659,252.678 324.126,252.563 323.939 C 252.447 323.753,252.588 323.599,252.876 323.597 C 253.164 323.595,253.608 323.145,253.863 322.596 C 254.117 322.048,254.164 321.699,253.967 321.820 C 253.770 321.942,253.716 321.762,253.847 321.421 C 253.978 321.079,254.336 320.800,254.643 320.800 C 255.147 320.800,255.375 320.309,255.247 319.500 C 255.221 319.335,255.391 319.200,255.624 319.200 C 255.857 319.200,255.936 319.020,255.800 318.800 C 255.664 318.580,255.754 318.400,256.000 318.400 C 256.246 318.400,256.344 318.232,256.217 318.027 C 256.090 317.822,256.316 317.417,256.720 317.127 C 257.485 316.576,258.304 314.965,257.595 315.403 C 257.378 315.537,257.200 315.440,257.200 315.186 C 257.200 314.933,257.560 314.631,258.000 314.516 C 258.443 314.400,258.800 313.970,258.800 313.553 C 258.800 313.139,258.999 312.800,259.243 312.800 C 259.486 312.800,259.584 312.535,259.459 312.211 C 259.335 311.886,259.524 311.459,259.878 311.260 C 260.245 311.055,260.421 310.633,260.287 310.283 C 260.154 309.936,260.302 309.570,260.625 309.446 C 260.941 309.324,261.200 308.859,261.200 308.413 C 261.200 307.966,261.399 307.600,261.643 307.600 C 261.886 307.600,261.979 307.323,261.850 306.985 C 261.715 306.635,261.869 306.272,262.207 306.142 C 262.533 306.017,262.800 305.574,262.800 305.157 C 262.800 304.741,262.984 304.400,263.208 304.400 C 263.432 304.400,263.534 303.950,263.434 303.400 C 263.310 302.714,263.433 302.400,263.826 302.400 C 264.172 302.400,264.400 302.002,264.400 301.400 C 264.400 300.850,264.588 300.400,264.818 300.400 C 265.047 300.400,265.206 300.175,265.170 299.900 C 265.018 298.726,265.227 297.569,265.555 297.772 C 265.750 297.893,265.902 297.768,265.892 297.496 C 265.827 295.702,266.042 294.779,266.463 295.039 C 266.782 295.236,266.854 295.049,266.694 294.438 C 266.543 293.859,266.668 293.472,267.054 293.324 C 267.380 293.199,267.553 292.855,267.440 292.560 C 267.327 292.265,267.451 291.793,267.717 291.512 C 267.983 291.230,268.263 290.550,268.339 290.000 C 268.415 289.450,268.653 288.786,268.867 288.525 C 269.081 288.264,269.171 287.512,269.067 286.853 C 268.942 286.057,269.066 285.583,269.439 285.440 C 270.084 285.193,270.210 283.600,269.584 283.600 C 269.356 283.600,269.536 283.206,269.984 282.725 C 270.544 282.124,270.800 281.307,270.800 280.125 C 270.800 279.050,270.981 278.400,271.280 278.400 C 271.653 278.400,271.653 278.293,271.280 277.920 C 270.735 277.375,270.625 276.645,271.136 276.960 C 271.320 277.074,271.496 276.513,271.526 275.713 C 271.556 274.913,271.774 274.140,272.009 273.994 C 272.270 273.833,272.379 272.684,272.289 271.054 C 272.207 269.583,272.285 268.608,272.464 268.889 C 272.642 269.170,272.804 269.220,272.824 269.000 C 272.843 268.780,272.937 268.184,273.031 267.676 C 273.133 267.123,273.041 266.851,272.801 266.999 C 272.581 267.136,272.400 267.057,272.400 266.824 C 272.400 266.591,272.597 266.400,272.839 266.400 C 273.136 266.400,273.233 265.174,273.139 262.600 C 273.062 260.510,273.115 258.800,273.257 258.800 C 273.677 258.800,274.052 256.793,273.787 255.960 C 273.653 255.536,273.377 255.290,273.176 255.415 C 272.974 255.540,272.916 255.363,273.046 255.023 C 273.177 254.683,273.445 254.504,273.642 254.626 C 273.839 254.748,274.000 254.376,274.000 253.800 C 274.000 253.224,273.839 252.852,273.642 252.974 C 273.445 253.096,273.177 252.917,273.046 252.577 C 272.916 252.237,272.968 252.057,273.162 252.176 C 273.356 252.296,273.631 251.930,273.773 251.363 C 274.042 250.294,273.750 248.800,273.273 248.800 C 273.123 248.800,273.033 246.891,273.074 244.558 C 273.115 242.225,272.966 239.840,272.744 239.258 C 272.522 238.676,272.344 237.156,272.349 235.879 C 272.355 234.438,272.177 233.489,271.879 233.375 C 271.568 233.256,271.449 232.491,271.538 231.198 C 271.642 229.712,271.526 229.146,271.084 228.977 C 270.660 228.814,270.535 228.302,270.645 227.175 C 270.731 226.292,270.623 225.600,270.399 225.600 C 270.180 225.600,270.000 224.895,270.000 224.033 C 270.000 223.152,269.786 222.395,269.510 222.303 C 269.223 222.208,269.062 221.583,269.121 220.801 C 269.177 220.064,269.020 219.336,268.773 219.183 C 268.525 219.030,268.294 218.448,268.261 217.891 C 268.227 217.333,268.065 216.960,267.900 217.062 C 267.595 217.250,267.450 216.366,267.579 215.100 C 267.618 214.715,267.459 214.400,267.225 214.400 C 266.991 214.400,266.800 213.961,266.800 213.424 C 266.800 212.887,266.620 212.336,266.400 212.200 C 266.180 212.064,266.000 211.533,266.000 211.019 C 266.000 210.506,265.744 209.987,265.431 209.867 C 265.083 209.734,264.946 209.329,265.078 208.824 C 265.200 208.355,265.101 208.000,264.847 208.000 C 264.601 208.000,264.400 207.550,264.400 207.000 C 264.400 206.450,264.220 206.000,264.000 206.000 C 263.780 206.000,263.600 205.640,263.600 205.200 C 263.600 204.760,263.420 204.400,263.200 204.400 C 262.980 204.400,262.800 203.860,262.800 203.200 C 262.800 202.540,262.620 202.000,262.400 202.000 C 262.180 202.000,262.000 201.655,262.000 201.233 C 262.000 200.812,261.833 200.407,261.630 200.333 C 261.426 200.260,261.201 199.930,261.130 199.600 C 261.058 199.270,260.905 198.910,260.788 198.800 C 260.672 198.690,259.862 197.160,258.988 195.400 C 258.115 193.640,257.265 192.140,257.100 192.067 C 256.935 191.993,256.800 191.588,256.800 191.167 C 256.800 190.745,256.609 190.400,256.376 190.400 C 256.143 190.400,256.081 190.608,256.238 190.862 C 256.418 191.154,256.348 191.215,256.046 191.028 C 255.783 190.866,255.666 190.423,255.786 190.044 C 255.909 189.655,255.656 188.981,255.202 188.495 C 254.761 188.021,254.400 187.356,254.400 187.017 C 254.400 186.678,254.130 186.400,253.800 186.400 C 253.470 186.400,253.200 186.046,253.200 185.614 C 253.200 185.181,252.691 184.307,252.068 183.670 C 250.968 182.544,250.725 181.158,251.578 180.874 C 251.810 180.797,252.000 180.448,252.000 180.100 C 252.000 179.752,252.109 179.576,252.243 179.709 C 252.441 179.907,261.094 171.428,262.630 169.531 C 262.867 169.239,263.542 168.642,264.130 168.205 C 264.719 167.768,265.200 167.177,265.200 166.893 C 265.200 166.608,265.511 166.256,265.891 166.110 C 266.777 165.770,269.200 163.356,269.200 162.813 C 269.200 162.586,269.365 162.400,269.567 162.400 C 270.220 162.400,273.262 159.224,273.006 158.810 C 272.870 158.589,273.003 158.503,273.304 158.619 C 274.019 158.893,275.369 157.397,274.977 156.763 C 274.786 156.454,274.844 156.380,275.135 156.560 C 275.734 156.930,277.730 154.934,277.360 154.335 C 277.187 154.055,277.253 153.986,277.530 154.157 C 278.025 154.462,281.702 151.035,281.305 150.639 C 281.174 150.507,281.290 150.400,281.562 150.400 C 282.201 150.400,283.200 149.401,283.200 148.762 C 283.200 148.490,283.309 148.376,283.443 148.509 C 283.760 148.826,284.771 147.891,284.534 147.500 C 284.435 147.335,284.534 147.200,284.756 147.200 C 285.337 147.200,296.400 136.135,296.400 135.554 C 296.400 135.286,296.507 135.174,296.639 135.305 C 296.950 135.617,300.400 132.166,300.400 131.544 C 300.400 131.281,300.507 131.174,300.638 131.305 C 300.946 131.613,304.337 128.296,304.118 127.900 C 304.027 127.735,304.233 127.600,304.576 127.600 C 304.933 127.600,305.200 127.258,305.200 126.800 C 305.200 126.053,305.647 125.794,306.600 125.986 C 306.820 126.030,306.866 125.933,306.702 125.769 C 306.539 125.605,306.795 125.275,307.272 125.036 C 307.748 124.796,308.428 124.076,308.782 123.435 C 309.136 122.795,309.767 122.075,310.184 121.835 C 311.272 121.211,322.000 110.456,322.000 109.990 C 322.000 109.775,322.281 109.600,322.624 109.600 C 322.967 109.600,323.136 109.420,323.000 109.200 C 322.864 108.980,323.006 108.800,323.314 108.800 C 324.141 108.800,325.331 107.335,324.974 106.757 C 324.761 106.414,324.871 106.342,325.334 106.519 C 325.700 106.660,326.000 106.588,326.000 106.359 C 326.000 106.130,326.270 105.673,326.600 105.343 C 326.930 105.013,327.200 104.847,327.200 104.975 C 327.200 105.102,329.782 102.640,332.938 99.503 C 336.094 96.366,338.633 93.710,338.580 93.600 C 338.527 93.490,338.735 93.168,339.042 92.884 C 339.519 92.443,339.600 97.710,339.600 129.184 C 339.600 153.461,339.736 166.000,340.000 166.000 C 340.220 166.000,340.400 166.360,340.400 166.800 C 340.400 167.240,340.580 167.600,340.800 167.600 C 341.020 167.600,341.200 167.889,341.200 168.243 C 341.200 168.627,341.424 168.800,341.755 168.673 C 342.152 168.520,342.256 168.706,342.120 169.330 C 341.971 170.015,342.018 170.075,342.342 169.614 C 342.681 169.131,342.824 169.212,343.152 170.074 C 343.833 171.866,346.498 173.530,349.200 173.852 C 349.970 173.943,351.230 174.207,352.000 174.437 C 355.177 175.386,371.845 174.498,372.521 173.344 C 372.726 172.993,373.196 172.884,373.821 173.041 C 374.371 173.179,374.800 173.111,374.800 172.887 C 374.800 172.667,375.250 172.374,375.800 172.236 C 376.350 172.098,376.800 171.798,376.800 171.569 C 376.800 171.340,376.975 171.261,377.188 171.393 C 377.402 171.525,377.691 171.177,377.831 170.619 C 377.971 170.062,378.258 169.712,378.469 169.843 C 378.911 170.116,380.025 168.764,379.739 168.302 C 379.635 168.133,379.831 167.886,380.175 167.754 C 380.519 167.622,380.800 167.174,380.800 166.757 C 380.800 166.341,380.982 166.000,381.205 166.000 C 381.477 166.000,381.605 143.074,381.595 96.200 C 381.584 51.220,381.440 26.400,381.189 26.400 C 380.975 26.400,380.800 26.130,380.800 25.800 C 380.800 25.470,380.620 25.200,380.400 25.200 C 380.180 25.200,380.000 24.827,380.000 24.371 C 380.000 23.451,379.126 22.400,378.362 22.400 C 378.090 22.400,377.976 22.291,378.109 22.158 C 378.462 21.805,376.546 20.000,375.818 20.000 C 375.478 20.000,375.200 19.809,375.200 19.576 C 375.200 19.343,375.047 19.248,374.859 19.364 C 374.671 19.480,374.176 19.314,373.759 18.997 C 372.834 18.293,234.000 18.108,234.000 18.811 M156.000 175.035 C 157.650 175.152,159.171 175.418,159.380 175.624 C 159.589 175.831,160.433 176.000,161.256 176.000 C 162.079 176.000,162.840 176.141,162.946 176.313 C 163.052 176.485,163.731 176.670,164.454 176.725 C 165.177 176.780,165.892 177.026,166.044 177.271 C 166.195 177.516,166.587 177.614,166.914 177.488 C 167.241 177.363,167.889 177.527,168.355 177.853 C 168.820 178.179,169.349 178.355,169.529 178.244 C 169.710 178.132,170.360 178.302,170.974 178.620 C 171.589 178.939,172.341 179.200,172.646 179.200 C 172.951 179.200,173.200 179.393,173.200 179.629 C 173.200 179.864,173.626 180.001,174.148 179.933 C 175.152 179.801,177.200 180.702,177.200 181.275 C 177.200 181.462,177.630 181.507,178.156 181.375 C 178.723 181.233,179.237 181.336,179.418 181.629 C 179.627 181.968,179.559 182.022,179.200 181.800 C 178.854 181.586,178.773 181.633,178.962 181.938 C 179.119 182.192,179.597 182.400,180.024 182.400 C 180.451 182.400,180.800 182.580,180.800 182.800 C 180.800 183.020,181.205 183.201,181.700 183.202 C 182.195 183.203,183.175 183.743,183.878 184.402 C 184.581 185.061,185.436 185.600,185.778 185.600 C 186.120 185.600,186.400 185.795,186.400 186.033 C 186.400 186.272,186.618 186.394,186.885 186.305 C 187.152 186.216,187.758 186.561,188.231 187.072 C 188.705 187.582,189.487 188.000,189.969 188.000 C 190.532 188.000,190.745 188.166,190.561 188.463 C 190.366 188.778,190.541 188.856,191.108 188.708 C 191.723 188.547,191.882 188.643,191.716 189.075 C 191.574 189.444,191.701 189.612,192.058 189.530 C 192.369 189.459,192.698 189.580,192.789 189.800 C 193.156 190.684,194.347 191.646,195.149 191.706 C 195.617 191.741,196.000 191.903,196.000 192.066 C 196.000 192.516,201.397 197.836,202.144 198.123 C 202.505 198.262,202.800 198.638,202.800 198.960 C 202.800 199.283,203.160 199.660,203.600 199.800 C 204.040 199.940,204.400 200.312,204.400 200.627 C 204.400 200.942,204.676 201.200,205.013 201.200 C 205.349 201.200,205.742 201.515,205.885 201.900 C 206.028 202.285,206.472 202.891,206.872 203.247 C 207.273 203.603,207.600 204.098,207.600 204.347 C 207.600 204.596,207.780 204.800,208.000 204.800 C 208.220 204.800,208.400 205.030,208.400 205.312 C 208.400 205.593,208.760 206.083,209.200 206.400 C 209.640 206.717,210.000 207.201,210.000 207.475 C 210.000 207.749,210.612 208.586,211.360 209.334 C 212.109 210.082,212.794 211.033,212.884 211.447 C 212.974 211.861,213.275 212.150,213.554 212.090 C 213.893 212.016,213.976 212.247,213.803 212.790 C 213.655 213.258,213.726 213.600,213.973 213.600 C 214.208 213.600,214.400 213.917,214.400 214.305 C 214.400 214.693,214.805 215.188,215.300 215.405 C 215.820 215.633,216.200 216.153,216.200 216.635 C 216.200 217.095,216.447 217.770,216.749 218.135 C 217.051 218.501,217.141 218.805,216.949 218.812 C 216.757 218.819,216.908 219.004,217.284 219.223 C 217.660 219.442,218.088 220.292,218.235 221.111 C 218.381 221.930,218.776 222.915,219.113 223.300 C 219.449 223.685,219.575 224.000,219.392 224.000 C 219.210 224.000,219.497 224.479,220.030 225.065 C 220.564 225.650,220.775 225.999,220.500 225.841 C 220.225 225.682,220.000 225.728,220.000 225.943 C 220.000 226.158,220.188 226.396,220.417 226.472 C 220.646 226.549,220.885 227.059,220.948 227.606 C 221.011 228.153,221.197 228.901,221.362 229.269 C 221.527 229.637,221.703 230.216,221.753 230.557 C 221.803 230.898,221.969 231.302,222.122 231.455 C 222.275 231.608,222.400 232.243,222.400 232.867 C 222.400 233.490,222.580 234.000,222.800 234.000 C 223.020 234.000,223.200 234.619,223.200 235.376 C 223.200 236.133,223.380 236.864,223.600 237.000 C 223.820 237.136,224.000 237.877,224.000 238.647 C 224.000 239.417,224.150 239.955,224.333 239.841 C 224.715 239.605,224.744 239.869,224.796 244.100 C 224.818 245.805,225.007 247.200,225.218 247.200 C 225.447 247.200,225.600 250.159,225.600 254.600 C 225.600 259.267,225.452 262.000,225.200 262.000 C 224.971 262.000,224.800 263.200,224.800 264.800 C 224.800 266.510,224.635 267.600,224.375 267.600 C 224.141 267.600,223.982 267.915,224.021 268.300 C 224.203 270.087,223.969 272.028,223.600 271.800 C 223.358 271.651,223.200 272.196,223.200 273.176 C 223.200 274.069,223.008 274.800,222.773 274.800 C 222.536 274.800,222.453 275.137,222.587 275.558 C 222.728 276.003,222.558 276.585,222.175 276.968 C 221.816 277.327,221.622 277.881,221.744 278.199 C 221.866 278.517,221.674 279.068,221.318 279.425 C 220.769 279.974,220.756 280.127,221.235 280.430 C 221.634 280.683,221.653 280.790,221.300 280.794 C 221.025 280.797,220.800 281.070,220.800 281.400 C 220.800 281.730,220.620 282.000,220.400 282.000 C 220.180 282.000,220.000 282.450,220.000 283.000 C 220.000 283.550,219.820 284.000,219.600 284.000 C 219.380 284.000,219.200 284.461,219.200 285.024 C 219.200 285.604,219.027 285.940,218.800 285.800 C 218.567 285.656,218.400 286.063,218.400 286.776 C 218.400 287.449,218.255 288.000,218.077 288.000 C 217.900 288.000,217.145 289.260,216.400 290.800 C 215.655 292.340,214.944 293.600,214.820 293.600 C 214.697 293.600,214.336 294.185,214.020 294.900 C 213.703 295.615,213.120 296.549,212.722 296.975 C 212.325 297.402,212.000 297.987,212.000 298.275 C 212.000 298.564,211.775 298.803,211.500 298.806 C 211.139 298.811,211.154 298.910,211.553 299.162 C 211.987 299.437,211.880 299.660,211.053 300.202 C 210.474 300.582,210.000 301.102,210.000 301.358 C 210.000 301.614,209.644 302.080,209.209 302.394 C 208.691 302.767,208.571 303.058,208.860 303.237 C 209.103 303.388,209.167 303.730,209.001 303.998 C 208.767 304.377,208.634 304.378,208.403 304.004 C 208.211 303.694,207.952 303.962,207.673 304.761 C 207.436 305.443,207.039 306.000,206.792 306.000 C 206.114 306.000,205.204 307.049,205.168 307.871 C 205.151 308.272,205.049 308.382,204.941 308.116 C 204.815 307.807,204.270 308.096,203.428 308.916 C 202.705 309.622,202.188 310.335,202.280 310.500 C 202.372 310.665,202.185 310.800,201.865 310.800 C 201.545 310.800,200.730 311.430,200.054 312.200 C 199.378 312.970,198.660 313.600,198.459 313.600 C 198.258 313.600,197.999 313.960,197.884 314.400 C 197.769 314.840,197.388 315.200,197.037 315.200 C 196.687 315.200,196.400 315.380,196.400 315.600 C 196.400 315.820,196.119 316.000,195.776 316.000 C 195.433 316.000,195.264 316.180,195.400 316.400 C 195.536 316.620,195.410 316.800,195.120 316.800 C 194.830 316.800,194.368 317.160,194.093 317.600 C 193.818 318.040,193.301 318.400,192.944 318.400 C 192.289 318.400,190.800 319.832,190.800 320.461 C 190.800 320.648,190.350 320.800,189.800 320.800 C 189.250 320.800,188.800 320.936,188.800 321.102 C 188.800 321.269,188.259 321.644,187.598 321.937 C 186.936 322.230,186.497 322.634,186.621 322.835 C 186.746 323.036,186.387 323.200,185.824 323.200 C 185.261 323.200,184.800 323.380,184.800 323.600 C 184.800 323.820,184.440 324.000,184.000 324.000 C 183.560 324.000,183.200 324.146,183.200 324.325 C 183.200 324.504,182.570 324.898,181.800 325.200 C 181.030 325.502,180.400 325.896,180.400 326.075 C 180.400 326.254,180.055 326.400,179.633 326.400 C 179.212 326.400,178.805 326.584,178.730 326.809 C 178.655 327.034,178.068 327.313,177.425 327.430 C 175.901 327.706,175.527 327.959,175.855 328.489 C 176.024 328.762,175.935 328.807,175.619 328.612 C 175.057 328.264,172.022 329.096,171.400 329.768 C 171.180 330.006,170.640 330.214,170.200 330.232 C 169.093 330.276,167.138 330.774,166.305 331.224 C 165.923 331.431,165.113 331.606,164.505 331.613 C 163.897 331.620,163.085 331.865,162.699 332.157 C 162.308 332.454,161.380 332.621,160.599 332.535 C 159.635 332.429,159.200 332.544,159.200 332.904 C 159.200 333.296,158.489 333.397,156.346 333.309 C 154.636 333.238,153.274 333.373,152.947 333.644 C 152.266 334.209,138.747 334.162,138.396 333.594 C 138.266 333.383,137.060 333.244,135.717 333.285 C 134.197 333.331,133.037 333.162,132.646 332.838 C 132.266 332.523,131.307 332.375,130.210 332.462 C 128.947 332.562,128.400 332.454,128.400 332.103 C 128.400 331.826,128.119 331.600,127.776 331.600 C 127.433 331.600,127.267 331.784,127.406 332.010 C 127.545 332.235,127.011 332.055,126.218 331.610 C 125.425 331.164,124.342 330.800,123.811 330.800 C 123.281 330.800,122.726 330.604,122.578 330.365 C 122.431 330.126,121.959 330.022,121.530 330.134 C 121.072 330.254,120.661 330.104,120.533 329.769 C 120.413 329.456,120.031 329.200,119.686 329.200 C 118.947 329.200,116.290 328.311,116.000 327.967 C 115.577 327.465,114.000 327.285,113.987 327.737 C 113.979 327.992,113.636 327.795,113.223 327.300 C 112.810 326.805,112.312 326.400,112.116 326.400 C 111.508 326.400,109.606 325.416,109.603 325.100 C 109.601 324.935,109.240 324.800,108.800 324.800 C 108.360 324.800,108.000 324.620,108.000 324.400 C 108.000 324.180,107.430 324.000,106.733 324.000 C 106.037 324.000,105.576 323.891,105.709 323.757 C 106.028 323.439,105.090 322.429,104.697 322.667 C 104.531 322.768,104.286 322.569,104.154 322.225 C 104.022 321.881,103.664 321.600,103.357 321.600 C 103.051 321.600,102.800 321.420,102.800 321.200 C 102.800 320.980,102.522 320.800,102.182 320.800 C 101.842 320.800,101.110 320.347,100.556 319.792 C 100.002 319.238,99.352 318.906,99.112 319.054 C 98.851 319.215,98.791 319.138,98.962 318.862 C 99.119 318.608,99.039 318.400,98.784 318.400 C 98.529 318.400,97.793 317.835,97.149 317.145 C 96.504 316.455,95.868 315.999,95.736 316.131 C 95.342 316.525,94.000 315.622,94.000 314.962 C 94.000 314.627,93.820 314.464,93.600 314.600 C 93.380 314.736,93.200 314.631,93.200 314.367 C 93.200 313.707,89.180 309.965,88.753 310.229 C 88.564 310.346,88.516 310.162,88.647 309.821 C 88.804 309.413,88.657 309.200,88.219 309.200 C 87.812 309.200,87.665 309.018,87.842 308.732 C 88.038 308.415,87.911 308.349,87.445 308.527 C 87.040 308.683,86.858 308.630,87.001 308.399 C 87.274 307.956,85.475 306.000,84.795 306.000 C 84.552 306.000,84.464 305.820,84.600 305.600 C 84.736 305.380,84.657 305.200,84.424 305.200 C 84.191 305.200,84.000 304.840,84.000 304.400 C 84.000 303.867,83.733 303.600,83.200 303.600 C 82.682 303.600,82.400 303.333,82.400 302.843 C 82.400 302.426,82.119 301.978,81.775 301.846 C 81.431 301.714,81.261 301.424,81.398 301.203 C 81.535 300.981,81.457 300.800,81.224 300.800 C 80.991 300.800,80.800 300.511,80.800 300.157 C 80.800 299.773,80.576 299.600,80.245 299.727 C 79.856 299.877,79.751 299.710,79.892 299.170 C 80.003 298.747,79.892 298.400,79.647 298.400 C 79.401 298.400,79.200 298.130,79.200 297.800 C 79.200 297.470,79.020 297.200,78.800 297.200 C 78.580 297.200,78.400 297.012,78.400 296.783 C 78.400 296.554,78.040 295.980,77.600 295.508 C 77.160 295.036,76.800 294.413,76.800 294.125 C 76.800 293.836,76.620 293.600,76.400 293.600 C 76.180 293.600,76.000 293.341,76.000 293.024 C 76.000 292.707,75.792 292.319,75.538 292.162 C 75.233 291.973,75.186 292.054,75.400 292.400 C 75.604 292.730,75.567 292.827,75.299 292.661 C 75.066 292.517,74.977 292.011,75.101 291.537 C 75.245 290.985,75.173 290.769,74.900 290.938 C 74.628 291.107,74.556 290.891,74.700 290.338 C 74.830 289.842,74.764 289.575,74.546 289.710 C 74.337 289.839,74.143 289.633,74.114 289.252 C 74.047 288.360,72.110 284.115,71.636 283.822 C 71.438 283.700,71.364 283.260,71.472 282.845 C 71.581 282.430,71.474 281.969,71.235 281.822 C 70.996 281.674,70.800 281.113,70.800 280.576 C 70.800 280.039,70.620 279.600,70.400 279.600 C 70.180 279.600,70.000 279.261,70.000 278.846 C 70.000 278.431,69.744 277.598,69.432 276.996 C 69.119 276.393,68.958 275.653,69.074 275.350 C 69.191 275.048,69.086 274.800,68.843 274.800 C 68.599 274.800,68.400 274.386,68.400 273.880 C 68.400 273.374,68.175 272.718,67.900 272.421 C 67.500 271.990,67.500 271.939,67.900 272.165 C 68.175 272.320,68.400 272.272,68.400 272.057 C 68.400 271.842,68.228 271.607,68.018 271.533 C 67.807 271.460,67.596 270.680,67.549 269.800 C 67.502 268.920,67.317 268.004,67.137 267.765 C 66.957 267.526,66.776 266.176,66.735 264.765 C 66.694 263.354,66.497 261.984,66.298 261.721 C 65.766 261.016,65.826 247.614,66.363 247.077 C 66.995 246.445,66.939 244.274,66.300 244.635 C 65.900 244.861,65.900 244.810,66.300 244.379 C 66.575 244.082,66.800 243.055,66.800 242.096 C 66.800 241.137,66.961 240.452,67.157 240.574 C 67.354 240.695,67.481 239.998,67.440 239.025 C 67.397 237.980,67.537 237.285,67.783 237.328 C 68.018 237.368,68.200 236.659,68.200 235.700 C 68.200 234.518,68.369 234.000,68.754 234.000 C 69.179 234.000,69.259 233.554,69.098 232.100 C 68.982 231.055,68.971 230.517,69.074 230.905 C 69.331 231.876,70.000 231.367,70.000 230.200 C 70.000 229.676,70.197 229.125,70.438 228.977 C 70.678 228.828,70.793 228.277,70.693 227.753 C 70.573 227.126,70.697 226.800,71.055 226.800 C 71.394 226.800,71.600 226.346,71.600 225.600 C 71.600 224.940,71.758 224.400,71.950 224.400 C 72.303 224.400,72.963 222.248,72.909 221.273 C 72.893 220.984,72.975 220.842,73.092 220.958 C 73.208 221.075,74.129 219.512,75.138 217.485 C 76.146 215.458,77.297 213.446,77.696 213.014 C 78.094 212.582,78.331 211.997,78.222 211.714 C 78.114 211.431,78.268 211.200,78.566 211.200 C 79.055 211.200,79.751 209.844,79.643 209.100 C 79.619 208.935,79.889 208.800,80.243 208.800 C 80.640 208.800,80.801 208.578,80.663 208.220 C 80.515 207.833,80.633 207.715,81.020 207.863 C 81.339 207.986,81.600 207.885,81.600 207.639 C 81.600 207.394,82.140 206.628,82.800 205.937 C 83.460 205.246,84.000 204.318,84.000 203.874 C 84.000 203.430,84.109 203.176,84.242 203.309 C 84.606 203.673,86.481 201.655,86.201 201.201 C 86.058 200.970,86.241 200.918,86.649 201.074 C 87.184 201.279,87.279 201.184,87.074 200.649 C 86.915 200.235,86.969 200.057,87.208 200.205 C 87.764 200.549,88.914 199.308,88.564 198.741 C 88.406 198.486,88.439 198.366,88.638 198.476 C 88.837 198.585,89.630 198.048,90.400 197.282 C 91.170 196.515,91.547 196.031,91.238 196.206 C 90.862 196.418,90.771 196.371,90.962 196.062 C 91.119 195.808,91.431 195.600,91.655 195.600 C 91.879 195.600,92.754 194.880,93.600 194.000 C 94.446 193.120,95.421 192.400,95.769 192.400 C 96.116 192.400,96.401 192.265,96.401 192.100 C 96.402 191.935,96.941 191.440,97.600 191.000 C 98.259 190.560,98.798 189.992,98.799 189.737 C 98.800 189.460,99.147 189.366,99.667 189.502 C 100.364 189.684,100.483 189.594,100.272 189.044 C 100.116 188.638,100.170 188.458,100.404 188.602 C 100.885 188.900,102.502 187.835,102.131 187.464 C 101.986 187.319,102.257 187.200,102.733 187.200 C 103.210 187.200,103.600 187.020,103.600 186.800 C 103.600 186.580,104.005 186.387,104.500 186.372 C 105.359 186.345,105.363 186.328,104.600 186.000 C 103.884 185.693,103.913 185.653,104.871 185.628 C 105.461 185.613,106.182 185.361,106.475 185.068 C 106.768 184.775,107.231 184.610,107.504 184.701 C 107.777 184.792,108.000 184.694,108.000 184.482 C 108.000 184.270,108.585 183.858,109.300 183.565 C 110.015 183.273,110.840 182.800,111.132 182.513 C 111.425 182.227,111.818 182.087,112.005 182.203 C 112.192 182.319,112.608 182.038,112.930 181.579 C 113.348 180.981,113.568 180.894,113.703 181.272 C 113.838 181.647,114.139 181.522,114.746 180.839 C 115.297 180.218,115.604 180.076,115.612 180.439 C 115.621 180.854,115.725 180.828,116.011 180.337 C 116.240 179.946,116.707 179.755,117.154 179.872 C 117.570 179.981,118.031 179.874,118.178 179.635 C 118.326 179.396,118.887 179.200,119.424 179.200 C 119.961 179.200,120.400 179.020,120.400 178.800 C 120.400 178.580,120.863 178.400,121.429 178.400 C 121.994 178.400,122.729 178.128,123.061 177.796 C 123.393 177.464,123.838 177.300,124.050 177.431 C 124.262 177.562,124.652 177.491,124.918 177.273 C 125.183 177.055,126.030 176.818,126.800 176.747 C 127.570 176.676,128.323 176.442,128.473 176.229 C 128.623 176.015,129.507 175.885,130.437 175.940 C 131.367 175.995,132.246 175.849,132.390 175.616 C 132.534 175.383,133.857 175.175,135.329 175.153 C 136.802 175.130,138.078 174.997,138.165 174.856 C 138.342 174.571,151.318 174.701,156.000 175.035 " stroke="none" fill="#76ace3" fill-rule="evenodd"></path><path id="path1" d="M305.900 125.757 C 305.169 126.312,304.984 126.800,305.504 126.800 C 305.671 126.800,306.032 126.440,306.307 126.000 C 306.889 125.068,306.844 125.040,305.900 125.757 M372.584 173.227 C 372.439 173.461,372.416 173.749,372.533 173.867 C 372.820 174.153,373.600 173.648,373.600 173.176 C 373.600 172.665,372.909 172.699,372.584 173.227 M273.646 251.724 C 273.621 252.122,273.422 252.337,273.205 252.203 C 272.974 252.061,272.913 252.229,273.058 252.606 C 273.396 253.486,274.134 252.714,273.884 251.742 C 273.705 251.046,273.690 251.045,273.646 251.724 M273.046 255.023 C 272.916 255.363,272.972 255.541,273.170 255.418 C 273.369 255.295,273.623 255.421,273.734 255.698 C 273.860 256.010,273.949 255.944,273.968 255.524 C 274.011 254.613,273.343 254.250,273.046 255.023 M266.000 295.600 C 266.000 296.347,266.107 296.453,266.480 296.080 C 266.853 295.707,266.853 295.493,266.480 295.120 C 266.107 294.747,266.000 294.853,266.000 295.600 M257.467 314.667 C 256.981 315.153,257.190 315.579,257.800 315.345 C 258.130 315.218,258.400 314.954,258.400 314.757 C 258.400 314.338,257.849 314.284,257.467 314.667 " stroke="none" fill="#a8ccf4" fill-rule="evenodd"></path><path id="path2" d="M305.900 125.757 C 305.169 126.312,304.984 126.800,305.504 126.800 C 305.671 126.800,306.032 126.440,306.307 126.000 C 306.889 125.068,306.844 125.040,305.900 125.757 M372.584 173.227 C 372.439 173.461,372.416 173.749,372.533 173.867 C 372.820 174.153,373.600 173.648,373.600 173.176 C 373.600 172.665,372.909 172.699,372.584 173.227 M273.646 251.724 C 273.621 252.122,273.422 252.337,273.205 252.203 C 272.974 252.061,272.913 252.229,273.058 252.606 C 273.396 253.486,274.134 252.714,273.884 251.742 C 273.705 251.046,273.690 251.045,273.646 251.724 M273.046 255.023 C 272.916 255.363,272.972 255.541,273.170 255.418 C 273.369 255.295,273.623 255.421,273.734 255.698 C 273.860 256.010,273.949 255.944,273.968 255.524 C 274.011 254.613,273.343 254.250,273.046 255.023 M266.000 295.600 C 266.000 296.347,266.107 296.453,266.480 296.080 C 266.853 295.707,266.853 295.493,266.480 295.120 C 266.107 294.747,266.000 294.853,266.000 295.600 M257.467 314.667 C 256.981 315.153,257.190 315.579,257.800 315.345 C 258.130 315.218,258.400 314.954,258.400 314.757 C 258.400 314.338,257.849 314.284,257.467 314.667 " stroke="none" fill="#a8ccf4" fill-rule="evenodd"></path><path id="path3" d="M305.900 125.757 C 305.169 126.312,304.984 126.800,305.504 126.800 C 305.671 126.800,306.032 126.440,306.307 126.000 C 306.889 125.068,306.844 125.040,305.900 125.757 M372.584 173.227 C 372.439 173.461,372.416 173.749,372.533 173.867 C 372.820 174.153,373.600 173.648,373.600 173.176 C 373.600 172.665,372.909 172.699,372.584 173.227 M273.646 251.724 C 273.621 252.122,273.422 252.337,273.205 252.203 C 272.974 252.061,272.913 252.229,273.058 252.606 C 273.396 253.486,274.134 252.714,273.884 251.742 C 273.705 251.046,273.690 251.045,273.646 251.724 M273.046 255.023 C 272.916 255.363,272.972 255.541,273.170 255.418 C 273.369 255.295,273.623 255.421,273.734 255.698 C 273.860 256.010,273.949 255.944,273.968 255.524 C 274.011 254.613,273.343 254.250,273.046 255.023 M266.000 295.600 C 266.000 296.347,266.107 296.453,266.480 296.080 C 266.853 295.707,266.853 295.493,266.480 295.120 C 266.107 294.747,266.000 294.853,266.000 295.600 M257.467 314.667 C 256.981 315.153,257.190 315.579,257.800 315.345 C 258.130 315.218,258.400 314.954,258.400 314.757 C 258.400 314.338,257.849 314.284,257.467 314.667 " stroke="none" fill="#a8ccf4" fill-rule="evenodd"></path><path id="path4" d="M305.900 125.757 C 305.169 126.312,304.984 126.800,305.504 126.800 C 305.671 126.800,306.032 126.440,306.307 126.000 C 306.889 125.068,306.844 125.040,305.900 125.757 M372.584 173.227 C 372.439 173.461,372.416 173.749,372.533 173.867 C 372.820 174.153,373.600 173.648,373.600 173.176 C 373.600 172.665,372.909 172.699,372.584 173.227 M273.646 251.724 C 273.621 252.122,273.422 252.337,273.205 252.203 C 272.974 252.061,272.913 252.229,273.058 252.606 C 273.396 253.486,274.134 252.714,273.884 251.742 C 273.705 251.046,273.690 251.045,273.646 251.724 M273.046 255.023 C 272.916 255.363,272.972 255.541,273.170 255.418 C 273.369 255.295,273.623 255.421,273.734 255.698 C 273.860 256.010,273.949 255.944,273.968 255.524 C 274.011 254.613,273.343 254.250,273.046 255.023 M266.000 295.600 C 266.000 296.347,266.107 296.453,266.480 296.080 C 266.853 295.707,266.853 295.493,266.480 295.120 C 266.107 294.747,266.000 294.853,266.000 295.600 M257.467 314.667 C 256.981 315.153,257.190 315.579,257.800 315.345 C 258.130 315.218,258.400 314.954,258.400 314.757 C 258.400 314.338,257.849 314.284,257.467 314.667 " stroke="none" fill="#a8ccf4" fill-rule="evenodd"></path></g></svg>