<svg width="24" height="17" viewBox="0 0 24 17" fill="none" xmlns="http://www.w3.org/2000/svg">
<g clip-path="url(#clip0_427_709)">
<path d="M6.79871e-06 15.4435V1.8783C6.79871e-06 1.04343 0.500876 4.17798e-05 1.96169 4.17798e-05H21.9965C23.4574 4.17798e-05 24 1.04332 24 1.8783V15.4435C24 16.4868 23.04 17.1131 22.2051 17.1131H1.96169C0.91829 17.1131 0.0835087 16.4869 6.79871e-06 15.4435Z" fill="black" fill-opacity="0.54"/>
<path d="M4.72764 5.76943C4.72764 4.77409 5.66361 4 6.6784 4C7.69319 4 8.56878 4.90634 8.56878 5.76953C8.56878 6.63271 8.18897 7.88432 6.6784 7.88432C5.16783 7.88432 4.72764 6.76477 4.72764 5.76943Z" fill="white"/>
<path d="M4.30472 9.3947C3.01002 10.0421 2.96679 11.7685 3.00987 12.5453C4.60126 12.5453 8.31853 12.5451 10.2607 12.5453C10.347 11.7685 10.347 10.0423 9.05224 9.3947C7.97325 8.74731 5.16791 8.74731 4.30472 9.3947Z" fill="white"/>
<path d="M13.1524 4.23807C12.8668 4.23807 12.6353 4.46955 12.6353 4.75508C12.6353 5.04062 12.8668 5.2721 13.1524 5.2721V4.23807ZM21.9999 5.2721C22.2855 5.2721 22.5169 5.04062 22.5169 4.75508C22.5169 4.46955 22.2855 4.23807 21.9999 4.23807V5.2721ZM13.1524 6.02918C12.8668 6.02918 12.6353 6.26065 12.6353 6.54619C12.6353 6.83173 12.8668 7.0632 13.1524 7.0632V6.02918ZM21.9999 7.0632C22.2855 7.0632 22.5169 6.83173 22.5169 6.54619C22.5169 6.26065 22.2855 6.02918 21.9999 6.02918V7.0632ZM13.1524 7.79871C12.8668 7.7987 12.6354 8.03017 12.6353 8.31571C12.6353 8.60124 12.8668 8.83272 13.1523 8.83273L13.1524 7.79871ZM21.9999 8.83292C22.2854 8.83293 22.5169 8.60146 22.5169 8.31592C22.5169 8.03039 22.2855 7.79891 21.9999 7.7989L21.9999 8.83292ZM13.1524 9.56823C12.8668 9.56823 12.6353 9.79971 12.6353 10.0852C12.6353 10.3708 12.8668 10.6023 13.1524 10.6023V9.56823ZM21.9999 10.6023C22.2855 10.6023 22.5169 10.3708 22.5169 10.0852C22.5169 9.79971 22.2855 9.56823 21.9999 9.56823V10.6023ZM13.1524 11.3809C12.8668 11.3809 12.6353 11.6124 12.6353 11.8979C12.6353 12.1835 12.8668 12.4149 13.1524 12.4149V11.3809ZM22 12.4149C22.2855 12.4149 22.517 12.1835 22.517 11.8979C22.517 11.6124 22.2855 11.3809 22 11.3809V12.4149ZM3.00987 12.5453L2.49365 12.5739C2.50884 12.8479 2.73545 13.0623 3.00987 13.0623V12.5453ZM4.30472 9.3947L4.53595 9.85712L4.57764 9.83628L4.61493 9.80831L4.30472 9.3947ZM9.05224 9.3947L8.78623 9.83803L8.80323 9.84823L8.82096 9.8571L9.05224 9.3947ZM10.2607 12.5453L10.2606 13.0623C10.5241 13.0624 10.7454 12.8643 10.7745 12.6024L10.2607 12.5453ZM13.1524 5.2721H21.9999V4.23807H13.1524V5.2721ZM13.1524 7.0632H21.9999V6.02918H13.1524V7.0632ZM13.1523 8.83273L21.9999 8.83292L21.9999 7.7989L13.1524 7.79871L13.1523 8.83273ZM13.1524 10.6023H21.9999V9.56823H13.1524V10.6023ZM13.1524 12.4149H22V11.3809H13.1524V12.4149ZM6.6784 3.48299C5.44151 3.48299 4.21062 4.429 4.21062 5.76943H5.24465C5.24465 5.11918 5.88571 4.51701 6.6784 4.51701V3.48299ZM4.21062 5.76943C4.21062 6.33079 4.33287 6.98267 4.7208 7.50746C5.12775 8.05797 5.7778 8.40133 6.6784 8.40133V7.36731C6.06843 7.36731 5.74309 7.15089 5.55231 6.8928C5.3425 6.60897 5.24465 6.20341 5.24465 5.76943H4.21062ZM6.6784 8.40133C7.60294 8.40133 8.23736 8.00517 8.6187 7.43968C8.97975 6.9043 9.08579 6.26217 9.08579 5.76953H8.05176C8.05176 6.14006 7.9679 6.55533 7.7614 6.86155C7.5752 7.13766 7.26444 7.36731 6.6784 7.36731V8.40133ZM9.08579 5.76953C9.08579 5.16785 8.78623 4.59833 8.36362 4.18948C7.93716 3.77692 7.34033 3.48299 6.6784 3.48299V4.51701C7.03126 4.51701 7.37962 4.67625 7.64465 4.93265C7.91353 5.19277 8.05176 5.50802 8.05176 5.76953H9.08579ZM3.52609 12.5167C3.50583 12.1514 3.50841 11.5897 3.65421 11.0583C3.7993 10.5295 4.06731 10.0915 4.53595 9.85712L4.0735 8.93227C3.24744 9.34533 2.84648 10.0942 2.65704 10.7847C2.46832 11.4725 2.47083 12.1624 2.49365 12.5739L3.52609 12.5167ZM4.61493 9.80831C4.73912 9.71517 4.98683 9.61285 5.36116 9.53735C5.72229 9.46452 6.15253 9.42617 6.59755 9.42617C7.04205 9.42617 7.48832 9.46443 7.88062 9.53856C8.28037 9.61411 8.59075 9.72074 8.78623 9.83803L9.31824 8.95136C8.97423 8.74496 8.52933 8.60883 8.07263 8.52252C7.6085 8.43481 7.09717 8.39215 6.59755 8.39215C6.09847 8.39215 5.59809 8.43472 5.15673 8.52373C4.72857 8.61009 4.30192 8.75054 3.99451 8.98109L4.61493 9.80831ZM8.82096 9.8571C9.28548 10.0894 9.54276 10.5221 9.67254 11.0459C9.80327 11.5735 9.78645 12.1318 9.74684 12.4882L10.7745 12.6024C10.8213 12.182 10.8476 11.4888 10.6762 10.7972C10.5039 10.1017 10.1138 9.34755 9.28351 8.9323L8.82096 9.8571ZM10.2607 12.0283C8.31855 12.0281 4.6012 12.0283 3.00987 12.0283V13.0623C4.60132 13.0623 8.31851 13.0621 10.2606 13.0623L10.2607 12.0283Z" fill="white"/>
</g>
<defs>
<clipPath id="clip0_427_709">
<rect width="24" height="17" fill="white"/>
</clipPath>
</defs>
</svg>
