<svg width="40" height="36" viewBox="0 0 40 36" fill="none" xmlns="http://www.w3.org/2000/svg">
<path fill-rule="evenodd" clip-rule="evenodd" d="M8.01 15.98L23.63 15.98V26.85H8L8.01 15.98ZM16.509 18.1157V20.3542C16.509 20.4073 17.1034 20.4011 17.6977 20.395C18.2921 20.3888 18.8865 20.3827 18.8865 20.4358V22.477C18.8865 22.5242 18.337 22.5171 17.7664 22.5096C17.1501 22.5016 16.509 22.4932 16.509 22.5528V24.7175C16.509 24.8813 16.0834 24.8874 15.6126 24.8942C15.5816 24.8946 15.5503 24.8951 15.519 24.8956C14.9621 24.9044 14.3775 24.9084 14.3775 24.7152V22.5528C14.3775 22.4932 13.7366 22.5016 13.1203 22.5097C12.5498 22.5172 12.0003 22.5244 12 22.4771V20.4358C12 20.3825 12.5944 20.3886 13.1887 20.3948C13.7831 20.4009 14.3775 20.4071 14.3775 20.3538V18.1157C14.3775 18.0037 14.9428 18.0023 15.4912 18.001L15.5097 18.0009C15.5488 18.0008 15.5877 18.0007 15.6263 18.0005C16.0917 17.9985 16.509 17.9968 16.509 18.1157Z" fill="#74C1EB"/>
<path d="M23.63 15.98H23.88V15.73L23.63 15.73V15.98ZM8.01 15.98L8.01 15.73L7.76023 15.73L7.76 15.9798L8.01 15.98ZM23.63 26.85V27.1H23.88V26.85H23.63ZM8 26.85L7.75 26.8498L7.74977 27.1H8V26.85ZM17.7664 22.5096L17.7697 22.2596L17.7664 22.5096ZM16.509 24.7175H16.259V24.7175L16.509 24.7175ZM15.6126 24.8942L15.609 24.6442H15.609L15.6126 24.8942ZM15.519 24.8956L15.515 24.6456H15.515L15.519 24.8956ZM13.1203 22.5097L13.1236 22.7597L13.1203 22.5097ZM12 22.4771H11.75L11.75 22.4786L12 22.4771ZM15.4912 18.001L15.4918 18.251H15.4918L15.4912 18.001ZM15.5097 18.0009L15.5103 18.2509H15.5104L15.5097 18.0009ZM15.6263 18.0005L15.6274 18.2505L15.6263 18.0005ZM23.63 15.73L8.01 15.73L8.01 16.23L23.63 16.23V15.73ZM23.88 26.85V15.98H23.38V26.85H23.88ZM8 27.1H23.63V26.6H8V27.1ZM7.76 15.9798L7.75 26.8498L8.25 26.8502L8.26 15.9802L7.76 15.9798ZM16.759 20.3542V18.1157H16.259V20.3542H16.759ZM17.6951 20.145C17.3966 20.1481 17.1037 20.1511 16.8853 20.1468C16.7751 20.1447 16.6911 20.1408 16.6371 20.1352C16.6081 20.1321 16.5998 20.1297 16.6034 20.1308C16.6053 20.1313 16.6102 20.1327 16.6171 20.1355C16.6234 20.138 16.6356 20.1433 16.6503 20.1527C16.6692 20.1648 16.759 20.2272 16.759 20.3542H16.259C16.259 20.4878 16.3534 20.5564 16.3813 20.5742C16.4164 20.5966 16.4506 20.6072 16.468 20.6121C16.5065 20.6229 16.5492 20.6287 16.5852 20.6325C16.6613 20.6404 16.763 20.6446 16.8756 20.6467C17.1031 20.6512 17.4045 20.648 17.7003 20.645L17.6951 20.145ZM19.1365 20.4358C19.1365 20.3022 19.042 20.2336 19.0141 20.2157C18.979 20.1934 18.9449 20.1828 18.9275 20.1779C18.889 20.167 18.8463 20.1612 18.8103 20.1575C18.7342 20.1495 18.6325 20.1454 18.5198 20.1432C18.2924 20.1388 17.9909 20.1419 17.6951 20.145L17.7003 20.645C17.9989 20.6419 18.2918 20.6389 18.5101 20.6431C18.6204 20.6452 18.7044 20.6491 18.7583 20.6548C18.7873 20.6578 18.7957 20.6602 18.792 20.6592C18.7901 20.6586 18.7852 20.6572 18.7784 20.6545C18.772 20.6519 18.7598 20.6466 18.7452 20.6372C18.7263 20.6252 18.6365 20.5627 18.6365 20.4358H19.1365ZM19.1365 22.477V20.4358H18.6365V22.477H19.1365ZM17.7632 22.7596C18.0471 22.7633 18.3312 22.767 18.5442 22.7638C18.6497 22.7622 18.7447 22.7588 18.8158 22.7519C18.8493 22.7487 18.8896 22.7436 18.9263 22.7338C18.9426 22.7294 18.9758 22.7197 19.0104 22.6986C19.0356 22.6832 19.1365 22.6152 19.1365 22.477H18.6365C18.6365 22.3447 18.733 22.2822 18.7499 22.2718C18.7761 22.2558 18.797 22.2508 18.7972 22.2507C18.8016 22.2496 18.7945 22.2516 18.7676 22.2542C18.7178 22.2591 18.6398 22.2623 18.5366 22.2639C18.3323 22.267 18.0564 22.2634 17.7697 22.2596L17.7632 22.7596ZM16.759 22.5528C16.759 22.6748 16.6753 22.737 16.6543 22.7508C16.6397 22.7605 16.6275 22.766 16.6211 22.7687C16.6142 22.7715 16.6094 22.773 16.6076 22.7735C16.6045 22.7744 16.6142 22.7717 16.6454 22.7684C16.7036 22.7621 16.7938 22.758 16.9112 22.7558C17.1437 22.7515 17.4536 22.7556 17.7632 22.7596L17.7697 22.2596C17.463 22.2556 17.1441 22.2515 16.902 22.2559C16.7821 22.2581 16.6735 22.2625 16.5922 22.2712C16.5536 22.2753 16.5084 22.2816 16.4679 22.2934C16.4494 22.2988 16.4142 22.3102 16.3784 22.3339C16.3477 22.3542 16.259 22.4233 16.259 22.5528H16.759ZM16.759 24.7175V22.5528H16.259V24.7175H16.759ZM15.6162 25.1442C15.8456 25.1409 16.0876 25.1378 16.2716 25.1124C16.3615 25.0999 16.4625 25.0793 16.5473 25.0367C16.6344 24.993 16.759 24.8943 16.759 24.7174L16.259 24.7175C16.259 24.6226 16.3304 24.5861 16.323 24.5898C16.3133 24.5947 16.2785 24.6067 16.2031 24.6171C16.0567 24.6373 15.8505 24.6407 15.609 24.6442L15.6162 25.1442ZM15.5229 25.1455C15.5541 25.1451 15.5851 25.1446 15.6162 25.1442L15.609 24.6442C15.578 24.6447 15.5466 24.6451 15.515 24.6456L15.5229 25.1455ZM14.1275 24.7152C14.1275 24.921 14.2913 25.0191 14.3808 25.0567C14.4793 25.098 14.5998 25.1182 14.714 25.1299C14.9473 25.1537 15.2485 25.1499 15.5229 25.1455L15.515 24.6456C15.2326 24.6501 14.963 24.6527 14.7648 24.6325C14.6632 24.6221 14.6027 24.6076 14.5743 24.5956C14.5367 24.5798 14.6275 24.6061 14.6275 24.7152H14.1275ZM14.1275 22.5528V24.7152H14.6275V22.5528H14.1275ZM13.1236 22.7597C13.4332 22.7556 13.743 22.7516 13.9754 22.7558C14.0928 22.7579 14.1829 22.7621 14.2411 22.7683C14.2723 22.7717 14.2819 22.7744 14.2788 22.7735C14.277 22.773 14.2721 22.7715 14.2653 22.7686C14.2589 22.766 14.2467 22.7605 14.232 22.7508C14.211 22.7368 14.1275 22.6746 14.1275 22.5528H14.6275C14.6275 22.4234 14.5389 22.3543 14.5082 22.334C14.4724 22.3102 14.4372 22.2988 14.4187 22.2935C14.3781 22.2816 14.3329 22.2753 14.2943 22.2712C14.213 22.2625 14.1045 22.2581 13.9846 22.2559C13.7425 22.2515 13.4238 22.2557 13.1171 22.2597L13.1236 22.7597ZM11.75 22.4786C11.7508 22.6162 11.8513 22.6836 11.8764 22.6989C11.9108 22.7199 11.944 22.7296 11.9604 22.734C11.997 22.7437 12.0373 22.7488 12.0708 22.752C12.142 22.7589 12.237 22.7623 12.3425 22.7639C12.5556 22.7672 12.8397 22.7634 13.1236 22.7597L13.1171 22.2597C12.8304 22.2635 12.5545 22.2671 12.3501 22.264C12.2469 22.2624 12.1688 22.2592 12.119 22.2544C12.0921 22.2518 12.085 22.2497 12.0893 22.2509C12.0895 22.2509 12.1102 22.2559 12.1363 22.2718C12.1531 22.282 12.2492 22.3439 12.25 22.4757L11.75 22.4786ZM11.75 20.4358V22.4771H12.25V20.4358H11.75ZM13.1913 20.1448C12.8955 20.1417 12.5941 20.1386 12.3666 20.143C12.2539 20.1452 12.1522 20.1494 12.0761 20.1574C12.0401 20.1612 11.9973 20.167 11.9587 20.1779C11.9413 20.1828 11.9071 20.1934 11.872 20.2159C11.8439 20.2339 11.75 20.3026 11.75 20.4358H12.25C12.25 20.5623 12.1608 20.6247 12.1416 20.637C12.1155 20.6537 12.0947 20.659 12.0947 20.659C12.0909 20.6601 12.0993 20.6577 12.1282 20.6547C12.1821 20.649 12.2661 20.6451 12.3764 20.6429C12.5947 20.6387 12.8876 20.6417 13.1861 20.6448L13.1913 20.1448ZM14.1275 20.3538C14.1275 20.2273 14.2167 20.1648 14.2358 20.1526C14.2619 20.1358 14.2828 20.1305 14.2828 20.1305C14.2865 20.1295 14.2782 20.1319 14.2492 20.1349C14.1953 20.1406 14.1113 20.1445 14.0011 20.1466C13.7828 20.1509 13.4899 20.1479 13.1913 20.1448L13.1861 20.6448C13.4819 20.6478 13.7834 20.651 14.0109 20.6465C14.1235 20.6443 14.2253 20.6402 14.3014 20.6322C14.3374 20.6284 14.3802 20.6226 14.4187 20.6117C14.4362 20.6068 14.4704 20.5961 14.5055 20.5736C14.5336 20.5556 14.6275 20.487 14.6275 20.3538H14.1275ZM14.1275 18.1157V20.3538H14.6275V18.1157H14.1275ZM15.4906 17.751C15.2194 17.7516 14.9315 17.7522 14.7114 17.7674C14.6034 17.7749 14.4967 17.7867 14.4119 17.8087C14.3713 17.8191 14.3165 17.8365 14.2665 17.8691C14.2173 17.9011 14.1275 17.9799 14.1275 18.1157H14.6275C14.6275 18.2235 14.5553 18.2777 14.5392 18.2882C14.5222 18.2993 14.5159 18.2982 14.5369 18.2928C14.5752 18.2829 14.644 18.2733 14.7459 18.2662C14.9456 18.2524 15.2146 18.2516 15.4918 18.251L15.4906 17.751ZM15.5091 17.7509L15.4906 17.751L15.4918 18.251L15.5103 18.2509L15.5091 17.7509ZM15.6253 17.7505C15.5866 17.7507 15.5479 17.7508 15.5091 17.7509L15.5104 18.2509C15.5497 18.2508 15.5888 18.2507 15.6274 18.2505L15.6253 17.7505ZM16.759 18.1157C16.759 18.0173 16.7123 17.9411 16.6594 17.8925C16.6122 17.8491 16.559 17.8255 16.5204 17.8117C16.4427 17.7841 16.3497 17.7712 16.2639 17.7637C16.0874 17.7483 15.8534 17.7495 15.6253 17.7505L15.6274 18.2505C15.8646 18.2495 16.0719 18.2489 16.2204 18.2618C16.2971 18.2685 16.3375 18.2774 16.3526 18.2827C16.3604 18.2855 16.3434 18.2812 16.3209 18.2605C16.2927 18.2345 16.259 18.1843 16.259 18.1157H16.759Z" fill="#74C1EB"/>
<path d="M11.5056 4.01349C9.4057 4.01349 9.4057 3.91322 9.4057 4.25944C9.4057 5.48917 9.4057 6.24339 9.4057 7.47311M11.5056 4.01349C12.306 4.01349 13.6687 4.01349 13.6687 4.01349M11.5056 4.01349C11.5056 5.39018 11.5056 7.47311 11.5056 7.47311M13.6687 4.01349H15.8249M13.6687 4.01349V7.47311M15.8249 4.01349H17.9564M15.8249 4.01349V7.47311M17.9564 4.01349C17.9564 4.01349 19.3039 4.01349 20.1043 4.01349M17.9564 4.01349V7.47311M20.1043 4.01349C22.1539 4.01349 22.1129 3.91511 22.1129 4.25944C22.1129 5.48917 22.1129 6.24339 22.1129 7.47311M20.1043 4.01349C20.1043 5.34825 20.1043 7.47311 20.1043 7.47311M22.1129 7.47311C21.3285 7.47311 20.1043 7.47311 20.1043 7.47311M22.1129 7.47311C22.1129 7.5387 21.0061 7.45223 21.0061 8.35852C21.0061 9.17833 20.8831 10.0801 21.293 10.8999C22.1129 12.5396 23.081 12.6119 23.5065 14.0972C23.6849 14.7197 23.6308 15.9828 23.6308 15.9828M20.1043 7.47311H17.9564M17.9564 7.47311H15.8249M15.8249 7.47311H13.6687M13.6687 7.47311H11.5056M11.5056 7.47311C11.5056 7.47311 10.2258 7.47311 9.4057 7.47311M9.4057 7.47311C9.4057 7.5387 10.6354 7.44852 10.6354 8.35852C10.6354 9.17833 10.6285 10.0788 10.3479 10.8999C9.8156 12.2936 8.53394 12.6134 8.176 14.0972C7.98187 15.1302 8.01213 15.9828 8.01213 15.9828M22.4175 31.2496C18.319 31.184 13.9147 31.215 9.81563 31.215C9.40566 31.215 8.58584 30.9986 8.17594 30.0837C7.93361 29.5428 8.01215 26.8601 8.01215 26.8601M22.4175 31.2496C21.375 30.4936 21.088 29.9005 21.088 28.8539C21.088 28.1378 21.5622 27.2135 22.6867 26.8536M22.4175 31.2496C22.8273 31.2496 26.3205 31.2496 26.3205 31.2496M22.6867 26.8536C17.0611 26.8536 8.01215 26.8601 8.01215 26.8601M22.6867 26.8536C22.9152 26.8536 23.6308 26.8544 23.6308 26.8544M29.9011 26.8536C28.4604 26.8536 26.3205 26.871 26.3205 26.871M29.9011 26.8536C29.914 26.8593 29.927 26.8651 29.9399 26.871C30.7465 27.2401 31.5407 28.047 31.5408 28.8539M29.9011 26.8536C29.9011 26.7864 29.9011 26.5436 29.9011 26.4765M31.5408 28.8539C31.5407 30.4936 30.3508 31.2238 29.6856 31.2496C28.0459 31.3134 26.3205 31.2496 26.3205 31.2496M31.5408 28.8539C32.9815 27.5733 35.0659 25.3861 35.0659 25.3861M26.3205 31.2496V26.871M26.3205 26.871L23.6308 26.8544M35.0659 25.3861C35.0659 25.3861 33.5903 23.935 32.7705 23.1152C32.1672 22.5118 30.7534 22.3877 29.9011 23.1152C28.9028 23.9675 28.9028 25.6242 29.9011 26.4765M35.0659 25.3861C35.0659 25.3861 36.8695 27.2143 37.6893 28.0341C38.0992 28.444 38.0992 29.6738 37.2794 30.4936C35.8871 31.8859 34.5983 31.0917 34.4101 30.9035C32.7704 29.2638 31.662 28.2053 29.9011 26.4765M8.01215 26.8601L8.01213 15.9828M8.01213 15.9828H23.6308M23.6308 15.9828V20.6558V25.5385V26.8544" stroke="#74C1EB" stroke-width="1.2"/>
</svg>
