<svg width="40" height="36" viewBox="0 0 40 36" fill="none" xmlns="http://www.w3.org/2000/svg">
<path d="M11.5056 4.01349C9.4057 4.01349 9.4057 3.91322 9.4057 4.25944C9.4057 5.48917 9.4057 6.24339 9.4057 7.47311M11.5056 4.01349C12.306 4.01349 13.6687 4.01349 13.6687 4.01349M11.5056 4.01349C11.5056 5.39018 11.5056 7.47311 11.5056 7.47311M13.6687 4.01349H15.8249M13.6687 4.01349V7.47311M15.8249 4.01349H17.9564M15.8249 4.01349V7.47311M17.9564 4.01349C17.9564 4.01349 19.3039 4.01349 20.1043 4.01349M17.9564 4.01349V7.47311M20.1043 4.01349C22.1539 4.01349 22.1129 3.91511 22.1129 4.25944C22.1129 5.48917 22.1129 6.24339 22.1129 7.47311M20.1043 4.01349C20.1043 5.34825 20.1043 7.47311 20.1043 7.47311M22.1129 7.47311C21.3285 7.47311 20.1043 7.47311 20.1043 7.47311M22.1129 7.47311C22.1129 7.5387 21.0061 7.45223 21.0061 8.35852C21.0061 9.17833 20.8831 10.0801 21.293 10.8999C22.1129 12.5396 23.081 12.6119 23.5065 14.0972C23.6849 14.7197 23.6308 15.9828 23.6308 15.9828M20.1043 7.47311H17.9564M17.9564 7.47311H15.8249M15.8249 7.47311H13.6687M13.6687 7.47311H11.5056M11.5056 7.47311C11.5056 7.47311 10.2258 7.47311 9.4057 7.47311M9.4057 7.47311C9.4057 7.5387 10.6354 7.44852 10.6354 8.35852C10.6354 9.17833 10.6285 10.0788 10.3479 10.8999C9.8156 12.2936 8.53394 12.6134 8.176 14.0972C7.98187 15.1302 8.01213 15.9828 8.01213 15.9828M22.4175 31.2496C18.319 31.184 13.9147 31.215 9.81563 31.215C9.40566 31.215 8.58584 30.9986 8.17594 30.0837C7.93361 29.5428 8.01215 26.8601 8.01215 26.8601M22.4175 31.2496C21.375 30.4936 21.088 29.9005 21.088 28.8539C21.088 28.1378 21.5622 27.2135 22.6867 26.8536M22.4175 31.2496C22.8273 31.2496 26.3205 31.2496 26.3205 31.2496M22.6867 26.8536C17.0611 26.8536 8.01215 26.8601 8.01215 26.8601M22.6867 26.8536C22.9152 26.8536 23.6308 26.8544 23.6308 26.8544M29.9011 26.8536C28.4604 26.8536 26.3205 26.871 26.3205 26.871M29.9011 26.8536C29.914 26.8593 29.927 26.8651 29.9399 26.871C30.7465 27.2401 31.5407 28.047 31.5408 28.8539M29.9011 26.8536C29.9011 26.7864 29.9011 26.5436 29.9011 26.4765M31.5408 28.8539C31.5407 30.4936 30.3508 31.2238 29.6856 31.2496C28.0459 31.3134 26.3205 31.2496 26.3205 31.2496M31.5408 28.8539C32.9815 27.5733 35.0659 25.3861 35.0659 25.3861M26.3205 31.2496V26.871M26.3205 26.871L23.6308 26.8544M35.0659 25.3861C35.0659 25.3861 33.5903 23.935 32.7705 23.1152C32.1672 22.5118 30.7534 22.3877 29.9011 23.1152C28.9028 23.9675 28.9028 25.6242 29.9011 26.4765M35.0659 25.3861C35.0659 25.3861 36.8695 27.2143 37.6893 28.0341C38.0992 28.444 38.0992 29.6738 37.2794 30.4936C35.8871 31.8859 34.5983 31.0917 34.4101 30.9035C32.7704 29.2638 31.662 28.2053 29.9011 26.4765M8.01215 26.8601L8.01213 15.9828M8.01213 15.9828H23.6308M23.6308 15.9828V20.6558V25.5385V26.8544M16.866 18.1963C16.8659 19.0161 16.866 20.171 16.866 20.4348C16.866 20.541 19.2435 20.4102 19.2435 20.5164C19.2435 21.5002 19.2435 22.4594 19.2435 22.5576C19.2435 22.6559 16.866 22.5187 16.866 22.6334C16.866 23.6009 16.8659 24.3882 16.866 24.7981C16.866 24.9727 16.3825 24.9682 15.876 24.9762C15.3191 24.985 14.7345 24.989 14.7345 24.7958C14.7345 23.976 14.7345 23.4532 14.7345 22.6334C14.7345 22.5186 12.3576 22.6561 12.357 22.5577C12.357 21.7379 12.357 21.3046 12.357 20.5164C12.357 20.4098 14.7345 20.541 14.7345 20.4344C14.7345 19.836 14.7345 19.0161 14.7345 18.1963C14.7345 18.0831 15.3126 18.0829 15.8667 18.0815C16.3765 18.0803 16.866 18.0675 16.866 18.1963Z" stroke-width="1.2"/>
</svg>
