<svg width="36" height="36" viewBox="0 0 36 36" fill="none" xmlns="http://www.w3.org/2000/svg">
<path d="M5.01232 13.8085C5.14812 12.316 6.1889 11.2445 8.01023 11.4101C9.65918 11.56 10.2996 12.6093 10.4086 13.8085C10.5742 15.6298 9.83174 16.6409 8.01042 16.8065C6.03168 16.9864 4.86603 15.4162 5.01232 13.8085Z" stroke-width="1.6"/>
<path d="M11.0084 8.41209C11.1174 7.21293 12.1849 5.84812 14.0062 6.01372C15.8276 6.17933 16.4046 7.81253 16.4046 9.01173C16.4046 10.2109 15.805 11.53 14.0062 11.53C12.0193 11.53 10.8448 10.2109 11.0084 8.41209Z" stroke-width="1.6"/>
<path d="M18.803 9.01169C18.6395 7.21289 20.0022 6.01369 21.801 6.01369C23.51 6.01369 24.1995 7.69257 24.2438 8.89177C24.1995 10.6906 23.0002 11.421 21.801 11.53C20.6018 11.639 18.9686 10.833 18.803 9.01169Z" stroke-width="1.6"/>
<path d="M24.7991 14.4081C24.6218 12.4578 25.9983 11.4101 27.7971 11.4101C29.1127 11.4101 30.1955 12.6093 30.1955 14.4081C30.1955 16.2369 28.3967 16.8065 27.1975 16.8065C25.9983 16.8065 24.949 16.057 24.7991 14.4081Z" stroke-width="1.6"/>
<path d="M17.6038 29.3981C13.5957 29.3981 9.80903 31.7965 7.41063 27.5993C6.81103 24.0017 8.61478 23.6226 11.6078 21.0037C14.0062 18.0057 15.3656 15.6073 17.6038 15.6073C19.8421 15.6073 21.2014 17.2862 23.5998 20.8838C24.4792 22.2029 28.3846 24.0017 27.6494 27.5993C27.4274 28.6857 26.1656 29.7959 24.1994 29.9977C22.2332 30.1994 19.8587 29.3981 17.6038 29.3981Z" stroke-width="1.6"/>
</svg>
